<?xml version="1.0" standalone="no"?>
<!DOCTYPE svg PUBLIC "-//W3C//DTD SVG 1.1//EN" "http://www.w3.org/Graphics/SVG/1.1/DTD/svg11.dtd" >
<svg xmlns="http://www.w3.org/2000/svg">
<metadata>
<json>
<![CDATA[
{
	"fontFamily": "jtbIL",
	"majorVersion": 1,
	"minorVersion": 0,
	"version": "Version 1.0",
	"fontId": "jtbIL",
	"psName": "jtbIL",
	"subFamily": "Regular",
	"fullName": "jtbIL",
	"description": "Font generated by IcoMoon."
}
]]>
</json>
</metadata>
<defs>
<font id="jtbIL" horiz-adv-x="1024">
<font-face units-per-em="1024" ascent="960" descent="-64" />
<missing-glyph horiz-adv-x="1024" />
<glyph unicode="&#x20;" horiz-adv-x="512" d="" />
<glyph unicode="&#xe900;" glyph-name="5" data-tags="5" d="M677.875 446.528c-59.166 40.864-132.425 65.273-211.384 65.273-10.303 0-20.508-0.416-30.601-1.231l1.329 0.086h-70.281v259.344h333.5c0.007 0 0.016 0 0.025 0 5.3 0 9.596 4.294 9.6 9.593v0 28.687c-0.003 5.299-4.3 9.594-9.6 9.594-0.009 0-0.018 0-0.026 0h-371.781c-0.005 0-0.011 0-0.017 0-5.289 0-9.576-4.287-9.576-9.576 0-0.006 0-0.013 0-0.019v0.001-335.872c0-0.005 0-0.012 0-0.018 0-5.289 4.287-9.576 9.576-9.576 0.006 0 0.013 0 0.019 0h105.499c8.24 0.713 17.83 1.12 27.515 1.12 67.383 0 130.169-19.684 182.921-53.616l-1.342 0.808c38.958-28.72 63.952-74.432 63.952-125.982 0-0.775-0.006-1.549-0.017-2.322l0.001 0.117c0.094-1.955 0.148-4.246 0.148-6.549 0-44.758-20.314-84.771-52.225-111.323l-0.235-0.19c-36.532-27.896-82.836-44.697-133.064-44.697-4.188 0-8.348 0.117-12.478 0.347l0.573-0.026c-79.535 1.907-153.261 25.17-216.137 64.244l1.824-1.056c-1.352 0.815-2.986 1.298-4.731 1.298-0.989 0-1.941-0.155-2.835-0.441l0.066 0.018c-2.551-0.732-4.613-2.447-5.788-4.698l-0.025-0.052-13.312-25.562c-0.695-1.29-1.103-2.824-1.103-4.453 0-3.495 1.88-6.551 4.684-8.211l0.044-0.024c67.534-42.227 149.324-67.727 236.984-68.933l0.328-0.004c4.011-0.217 8.706-0.341 13.43-0.341 62.809 0 120.514 21.851 165.929 58.366l-0.515-0.4c41.409 35.565 67.474 87.982 67.474 146.487 0 2.18-0.036 4.353-0.108 6.516l0.008-0.315c0.011 0.805 0.018 1.756 0.018 2.709 0 65.104-30.426 123.103-77.835 160.55l-0.431 0.328z" />
<glyph unicode="&#xe901;" glyph-name="6" data-tags="6" d="M703.25 507.25c-43.976 45.138-105.354 73.138-173.271 73.138-2.531 0-5.053-0.039-7.565-0.116l0.368 0.009c-0.626 0.006-1.365 0.009-2.105 0.009-30.508 0-59.666-5.784-86.436-16.315l1.603 0.556 179.656 237.969c1.186 1.583 1.898 3.579 1.898 5.742 0 5.304-4.286 9.606-9.584 9.633h-36.909c-3.132-0.004-5.913-1.502-7.67-3.82l-0.017-0.024-241.718-323.625c-35.116-44.987-56.532-102.165-57.187-164.32l-0.001-0.149c-0.030-1.448-0.048-3.156-0.048-4.867 0-137.239 111.254-248.493 248.493-248.493 1.722 0 3.441 0.018 5.155 0.052l-0.256-0.004c1.675-0.040 3.648-0.063 5.627-0.063 68.874 0 131.289 27.655 176.746 72.467l-0.030-0.029c45.744 44.345 74.135 106.361 74.135 175.009 0 2.085-0.026 4.163-0.078 6.236l0.006-0.307c0.053 1.922 0.083 4.185 0.083 6.454 0 68.010-27.039 129.704-70.954 174.919l0.059-0.061zM517.656 120.498c-1.386-0.035-3.019-0.055-4.656-0.055-55.237 0-105.185 22.643-141.069 59.153l-0.028 0.028c-36.302 36.631-58.733 87.062-58.733 142.731 0 1.985 0.029 3.962 0.085 5.933l-0.007-0.29c-0.001 0.229-0.001 0.499-0.001 0.769 0 55.33 22.043 105.512 57.826 142.244l-0.043-0.044c36.13 37.978 87.047 61.6 143.481 61.6 2.534 0 5.058-0.048 7.569-0.142l-0.362 0.011c1.481 0.040 3.224 0.063 4.973 0.063 54.892 0 104.544-22.435 140.286-58.636l0.020-0.021c35.987-36.518 58.21-86.685 58.21-142.043 0-2.061-0.031-4.115-0.092-6.161l0.007 0.3c0.032-1.328 0.050-2.893 0.050-4.461 0-55.534-22.813-105.739-59.579-141.755l-0.034-0.033c-36.639-36.607-87.239-59.247-143.126-59.247-1.68 0-3.356 0.020-5.027 0.061l0.248-0.005z" />
<glyph unicode="&#xe902;" glyph-name="7" data-tags="7" d="M739.375 817.875h-447.531c-0.005 0-0.012 0-0.018 0-5.289 0-9.576-4.287-9.576-9.576 0-0.007 0-0.013 0-0.020v0.001-29.721c0-0.005 0-0.012 0-0.018 0-5.289 4.287-9.576 9.576-9.576 0.006 0 0.013 0 0.019 0h395.218l-333.184-673.28c-0.629-1.243-0.997-2.71-0.997-4.262 0-5.301 4.291-9.6 9.589-9.613h33.813c3.752 0.016 6.996 2.177 8.569 5.32l0.025 0.056 343.122 694.313c0.616 1.241 0.983 2.7 1 4.244v22.534c-0.003 5.301-4.302 9.597-9.603 9.597-0.008 0-0.016 0-0.024 0h0.001z" />
<glyph unicode="&#xe903;" glyph-name="8" data-tags="8" d="M720.312 411.812c-26.419 28.233-59.448 49.953-96.638 62.719l-1.674 0.5c30.987 12.24 57.225 30.609 78.287 53.769l0.151 0.168c25.692 28.54 41.407 66.504 41.407 108.139 0 1.138-0.012 2.273-0.035 3.405l0.003-0.169c0.013 0.768 0.020 1.673 0.020 2.581 0 53.939-25.77 101.859-65.671 132.12l-0.412 0.3c-42.263 32.386-95.88 51.897-154.054 51.897-3.047 0-6.081-0.054-9.102-0.16l0.438 0.012c-2.748 0.106-5.974 0.166-9.214 0.166-58.308 0-112.055-19.528-155.057-52.4l0.617 0.452c-40.311-30.524-66.084-78.416-66.084-132.328 0-0.929 0.008-1.855 0.023-2.78l-0.002 0.139c-0.031-1.185-0.049-2.579-0.049-3.978 0-41.565 15.712-79.461 41.52-108.071l-0.127 0.143c21.262-23.101 47.479-41.298 76.995-52.949l1.412-0.491c-38.848-13.268-71.865-34.975-98.158-63.055l-0.122-0.132c-30.509-33.198-49.209-77.669-49.209-126.508 0-1.558 0.019-3.111 0.057-4.66l-0.004 0.23c-0.033-1.298-0.052-2.827-0.052-4.36 0-59.896 28.594-113.113 72.876-146.745l0.456-0.332c47.649-35.62 107.724-57.033 172.801-57.033 3.982 0 7.946 0.080 11.89 0.239l-0.566-0.018c3.26-0.132 7.085-0.207 10.929-0.207 64.887 0 124.772 21.412 172.976 57.556l-0.749-0.537c44.757 34.001 73.361 87.258 73.361 147.195 0 1.492-0.018 2.979-0.053 4.462l0.004-0.22c0.033 1.307 0.051 2.846 0.051 4.389 0 48.857-18.712 93.344-49.36 126.684l0.122-0.134zM513.031 120.5c-3.164-0.149-6.873-0.233-10.602-0.233-52.832 0-101.692 17.005-141.406 45.84l0.696-0.481c-34.877 25.498-57.275 66.265-57.275 112.265 0 1.423 0.021 2.842 0.064 4.255l-0.005-0.207c-0.038 1.239-0.059 2.696-0.059 4.158 0 47.963 23.195 90.509 58.979 117.032l0.393 0.278c38.988 29.476 88.281 47.213 141.717 47.213 2.638 0 5.266-0.043 7.883-0.129l-0.381 0.010c2.102 0.068 4.573 0.106 7.053 0.106 53.253 0 102.364-17.736 141.748-47.624l-0.583 0.424c36.177-26.786 59.373-69.319 59.373-117.271 0-1.476-0.022-2.948-0.066-4.413l0.005 0.215c0.025-0.983 0.039-2.141 0.039-3.303 0-46.094-22.397-86.957-56.901-112.3l-0.388-0.272c-38.789-28.6-87.53-45.773-140.282-45.773-3.518 0-7.018 0.076-10.499 0.228l0.496-0.017zM513.031 779.219c2.316 0.094 5.035 0.148 7.767 0.148 45.997 0 88.434-15.245 122.532-40.959l-0.517 0.374c30.486-22.239 50.071-57.839 50.071-98.013 0-0.512-0.003-1.023-0.010-1.534l0.001 0.078c0.014-0.684 0.022-1.49 0.022-2.298 0-40.671-20.212-76.62-51.139-98.353l-0.383-0.255c-33.788-25.062-76.307-40.119-122.342-40.119-2.111 0-4.214 0.032-6.309 0.094l0.307-0.007c-1.899-0.062-4.132-0.097-6.373-0.097-46.253 0-88.99 15.055-123.577 40.533l0.575-0.404c-31.294 22.024-51.49 57.989-51.49 98.672 0 0.786 0.008 1.57 0.023 2.352l-0.002-0.117c-0.006 0.441-0.009 0.962-0.009 1.484 0 40.179 19.613 75.778 49.788 97.744l0.346 0.24c33.744 25.354 76.342 40.602 122.5 40.602 2.89 0 5.767-0.060 8.628-0.178l-0.41 0.013z" />
<glyph unicode="&#xe904;" glyph-name="9" data-tags="9" d="M686.75 754.656c-44.724 44.791-106.546 72.499-174.839 72.499-1.936 0-3.866-0.022-5.791-0.067l0.286 0.005c-1.69 0.041-3.681 0.064-5.678 0.064-68.858 0-131.257-27.656-176.695-72.467l0.029 0.028c-45.744-44.387-74.132-106.439-74.132-175.121 0-2.045 0.025-4.084 0.075-6.118l-0.006 0.301c-0.054-1.934-0.084-4.209-0.084-6.493 0-67.988 27.041-129.66 70.954-174.848l-0.057 0.059c43.955-45.193 105.345-73.232 173.284-73.232 2.526 0 5.044 0.039 7.552 0.116l-0.367-0.009c0.599-0.005 1.307-0.009 2.015-0.009 30.555 0 59.754 5.807 86.553 16.377l-1.6-0.556-179.625-237.937c-1.207-1.593-1.934-3.608-1.934-5.793 0-5.307 4.287-9.613 9.587-9.644h36.879c3.139 0.002 5.924 1.515 7.669 3.85l0.018 0.025 241.656 323.656c35.166 44.957 56.611 102.132 57.249 164.292l0.001 0.145c0.048 1.812 0.075 3.945 0.075 6.084 0 68.383-27.95 130.239-73.049 174.765l-0.026 0.026zM506.406 779.219c1.396 0.035 3.041 0.056 4.69 0.056 55.229 0 105.173-22.63 141.065-59.122l0.027-0.027c36.285-36.669 58.701-87.123 58.701-142.812 0-1.967-0.028-3.927-0.084-5.881l0.006 0.287c0.001-0.25 0.002-0.546 0.002-0.843 0-55.303-22.057-105.454-57.854-142.136l0.040 0.041c-36.086-37.98-86.967-61.606-143.367-61.606-2.586 0-5.16 0.050-7.722 0.148l0.369-0.011c-1.484-0.040-3.231-0.063-4.983-0.063-54.879 0-104.519 22.436-140.246 58.636l-0.021 0.021c-36.005 36.488-58.242 86.639-58.242 141.984 0 2.072 0.031 4.136 0.093 6.192l-0.007-0.301c-0.030 1.288-0.047 2.806-0.047 4.327 0 55.603 22.849 105.87 59.671 141.922l0.035 0.034c36.651 36.586 87.249 59.21 143.131 59.21 1.668 0 3.332-0.020 4.991-0.060l-0.246 0.005z" />
<glyph unicode="&#xe905;" glyph-name="a" data-tags="a" d="M555.532 810.719c-1.583 3.274-4.875 5.493-8.687 5.5h-34.813c-3.813-0.007-7.105-2.226-8.662-5.443l-0.025-0.057-336.938-716.844c-0.562-1.187-0.891-2.579-0.891-4.048 0-5.302 4.281-9.605 9.575-9.64h31.753c3.828 0.011 7.127 2.259 8.663 5.504l0.025 0.058 82.406 175.69h461.935l83.375-175.75c1.605-3.254 4.884-5.461 8.682-5.5h31.755c5.301 0.008 9.596 4.307 9.596 9.61 0 1.481-0.335 2.883-0.933 4.136l0.025-0.058zM737.5 310.375h-417.188l209.062 443z" />
<glyph unicode="&#xe906;" glyph-name="address-book" data-tags="address-book" d="M736.5 920h-512.656c-48.58-0.051-87.949-39.419-88-87.995v-768.005c0.062-48.576 39.424-87.938 87.994-88h512.662c48.572 0.073 87.927 39.428 88 87.993v768.007c-0.062 48.576-39.424 87.938-87.994 88h-0.006zM776.5 64c-0.021-22.083-17.917-39.979-39.998-40h-512.658c-22.083 0.021-39.979 17.917-40 39.998v768.002c0.021 22.083 17.917 39.979 39.998 40h512.658c22.083-0.021 39.979-17.917 40-39.998v-0.002zM864.188 840.093c-13.253-0.003-23.997-10.746-24-24v0-160.187c0-13.255 10.745-24 24-24s24 10.745 24 24v0 160.187c-0.003 13.253-10.746 23.997-24 24v0zM864.188 552c-13.253-0.004-23.996-10.747-24-24v0-160c0-13.255 10.745-24 24-24s24 10.745 24 24v0 160c-0.004 13.253-10.747 23.996-24 24v0zM864.188 265.25c-13.253-0.004-23.996-10.747-24-24v0-162.5c0-13.255 10.745-24 24-24s24 10.745 24 24v0 162.5c-0.004 13.253-10.747 23.996-24 24v0zM480.156 450.25c67.189 0 121.656 54.467 121.656 121.656s-54.467 121.656-121.656 121.656c-67.189 0-121.656-54.467-121.656-121.656 0-0.001 0-0.002 0-0.003v0c0.071-67.16 54.496-121.584 121.65-121.654h0.007zM480.156 645.562c40.679 0 73.656-32.977 73.656-73.656s-32.977-73.656-73.656-73.656c-40.679 0-73.655 32.976-73.656 73.654v0c0.040 40.664 32.993 73.617 73.652 73.658h0.004zM480.156 403.875c-104.32-0.449-191.504-73.272-213.962-170.829l-0.288-1.484c-0.352-1.54-0.554-3.309-0.554-5.125 0-13.25 10.741-23.991 23.991-23.991 11.434 0 21 7.999 23.407 18.706l0.030 0.16c17.49 77.537 85.779 134.58 167.392 134.58s149.902-57.042 167.174-133.433l0.218-1.147c2.42-10.87 11.981-18.875 23.411-18.875 0.009 0 0.019 0 0.028 0h-0.001c1.819 0.006 3.586 0.21 5.287 0.593l-0.162-0.031c10.867 2.444 18.864 12.013 18.864 23.449 0 1.812-0.201 3.577-0.581 5.274l0.030-0.16c-22.747 99.053-109.95 171.882-214.237 172.313h-0.048z" />
<glyph unicode="&#xe907;" glyph-name="alarm-clock" data-tags="alarm-clock" d="M920 448c0 0.123 0 0.269 0 0.415 0 225.332-182.668 408-408 408s-408-182.668-408-408c0-113.653 46.471-216.452 121.447-290.433l0.045-0.044-116.116-142.812c-3.419-4.116-5.494-9.456-5.494-15.279 0-13.251 10.742-23.993 23.993-23.993 7.567 0 14.315 3.503 18.713 8.975l0.036 0.047 115.117 141.578c68.215-53.897 155.456-86.455 250.301-86.455 95.427 0 183.156 32.958 252.426 88.112l-0.824-0.634 113.604-142.415c4.43-5.475 11.149-8.946 18.679-8.946 13.24 0 23.973 10.733 23.973 23.973 0 5.63-1.941 10.807-5.19 14.897l0.038-0.049-114.977 144.141c74.26 73.704 120.229 175.823 120.229 288.679 0 0.085 0 0.171 0 0.256v-0.013zM152 448c0 198.823 161.177 360 360 360s360-161.177 360-360c0-198.823-161.177-360-360-360v0c-198.728 0.236-359.764 161.272-360 359.977v0.023zM134.687 704.312c1.881 3.344 2.989 7.34 2.989 11.595 0 8.994-4.951 16.832-12.276 20.936l-0.121 0.062c-22.381 12.507-37.265 36.053-37.265 63.076 0 39.773 32.242 72.015 72.015 72.015 27.015 0 50.555-14.875 62.878-36.881l0.187-0.364c4.178-7.41 11.997-12.333 20.966-12.333 13.248 0 23.988 10.74 23.988 23.988 0 4.23-1.095 8.204-3.016 11.654l0.062-0.122c-20.844 37.28-60.072 62.069-105.091 62.069-66.274 0-120-53.726-120-120 0-45.027 24.799-84.261 61.483-104.79l0.607-0.312c3.346-1.887 7.346-2.999 11.606-2.999 8.993 0 16.829 4.956 20.926 12.286l0.062 0.121zM864 920c-0.001 0-0.002 0-0.003 0-45.008 0-84.226-24.788-104.748-61.456l-0.312-0.606c-1.901-3.359-3.022-7.376-3.022-11.655 0-13.248 10.74-23.988 23.988-23.988 9.018 0 16.874 4.977 20.971 12.333l0.062 0.122c12.511 22.36 36.045 37.227 63.052 37.227 39.769 0 72.009-32.24 72.009-72.009 0-27.014-14.876-50.554-36.883-62.875l-0.364-0.187c-7.459-4.165-12.419-12.010-12.419-21.013 0-13.246 10.736-23.984 23.981-23.987v0c0.011 0 0.024 0 0.038 0 4.233 0 8.206 1.112 11.643 3.061l-0.117-0.061c37.31 20.832 62.125 60.073 62.125 105.111 0 66.265-53.718 119.983-119.983 119.983-0.007 0-0.014 0-0.020 0h0.001zM536 457.941v246.059c0 13.255-10.745 24-24 24s-24-10.745-24-24v0-256c0-0.008 0-0.018 0-0.028 0-6.618 2.687-12.609 7.031-16.941l127.97-128.032c4.351-4.351 10.361-7.042 17-7.042 13.278 0 24.042 10.764 24.042 24.042 0 6.639-2.691 12.649-7.042 17v0z" />
<glyph unicode="&#xe908;" glyph-name="alarm-exclamation" data-tags="alarm-exclamation" d="M920 448c0 0.123 0 0.269 0 0.415 0 225.332-182.668 408-408 408s-408-182.668-408-408c0-113.653 46.471-216.452 121.447-290.433l0.045-0.044-116.116-142.812c-3.419-4.116-5.494-9.456-5.494-15.279 0-13.251 10.742-23.993 23.993-23.993 7.567 0 14.315 3.503 18.713 8.975l0.036 0.047 115.117 141.578c68.215-53.897 155.456-86.455 250.301-86.455 95.427 0 183.156 32.958 252.426 88.112l-0.824-0.634 113.604-142.415c4.43-5.475 11.149-8.946 18.679-8.946 13.24 0 23.973 10.733 23.973 23.973 0 5.63-1.941 10.807-5.19 14.897l0.038-0.049-114.977 144.141c74.26 73.704 120.229 175.823 120.229 288.679 0 0.085 0 0.171 0 0.256v-0.013zM152 448c0 198.823 161.177 360 360 360s360-161.177 360-360c0-198.823-161.177-360-360-360v0c-198.728 0.236-359.764 161.272-360 359.977v0.023zM134.687 704.312c1.881 3.344 2.989 7.34 2.989 11.595 0 8.994-4.951 16.832-12.276 20.936l-0.121 0.062c-22.381 12.507-37.265 36.053-37.265 63.076 0 39.773 32.242 72.015 72.015 72.015 27.015 0 50.555-14.875 62.878-36.881l0.187-0.364c4.178-7.41 11.997-12.333 20.966-12.333 13.248 0 23.988 10.74 23.988 23.988 0 4.23-1.095 8.204-3.016 11.654l0.062-0.122c-20.844 37.28-60.072 62.069-105.091 62.069-66.274 0-120-53.726-120-120 0-45.027 24.799-84.261 61.483-104.79l0.607-0.312c3.346-1.887 7.346-2.999 11.606-2.999 8.993 0 16.829 4.956 20.926 12.286l0.062 0.121zM864 920c-0.001 0-0.002 0-0.003 0-45.008 0-84.226-24.788-104.748-61.456l-0.312-0.606c-1.901-3.359-3.022-7.376-3.022-11.655 0-13.248 10.74-23.988 23.988-23.988 9.018 0 16.874 4.977 20.971 12.333l0.062 0.122c12.511 22.36 36.045 37.227 63.052 37.227 39.769 0 72.009-32.24 72.009-72.009 0-27.014-14.876-50.554-36.883-62.875l-0.364-0.187c-7.459-4.165-12.419-12.010-12.419-21.013 0-13.246 10.736-23.984 23.981-23.987v0c0.011 0 0.024 0 0.038 0 4.233 0 8.206 1.112 11.643 3.061l-0.117-0.061c37.31 20.832 62.125 60.073 62.125 105.111 0 66.265-53.718 119.983-119.983 119.983-0.007 0-0.014 0-0.020 0h0.001zM512 360c13.253 0.004 23.996 10.747 24 24v0 256c0 13.255-10.745 24-24 24s-24-10.745-24-24v0-256c0.004-13.253 10.747-23.996 24-24v0zM494.72 273.313c-3.927-4.651-6.338-10.694-6.408-17.298v-0.015c-0.044-0.5-0.069-1.082-0.069-1.67 0-2.614 0.495-5.112 1.397-7.406l-0.048 0.137c1.239-2.995 2.973-5.551 5.124-7.686l0.001-0.001c4.201-4.725 10.296-7.688 17.083-7.688 0.069 0 0.139 0 0.208 0.001h-0.011c0.040 0 0.087 0 0.134 0 6.605 0 12.515 2.974 16.464 7.655l0.026 0.032c2.554 1.968 4.53 4.567 5.708 7.568l0.041 0.12c1.225 2.542 1.941 5.528 1.941 8.681 0 0.090-0.001 0.18-0.002 0.27v-0.014c0 0.001 0 0.003 0 0.005 0 6.734-2.683 12.842-7.038 17.313l0.005-0.005c-4.539 4.156-10.612 6.702-17.28 6.702s-12.741-2.546-17.299-6.72l0.019 0.017z" />
<glyph unicode="&#xe909;" glyph-name="alarm-minus" data-tags="alarm-minus" d="M920 448c0 0.123 0 0.269 0 0.415 0 225.332-182.668 408-408 408s-408-182.668-408-408c0-113.653 46.471-216.452 121.447-290.433l0.045-0.044-116.116-142.812c-3.419-4.116-5.494-9.456-5.494-15.279 0-13.251 10.742-23.993 23.993-23.993 7.567 0 14.315 3.503 18.713 8.975l0.036 0.047 115.117 141.578c68.215-53.897 155.456-86.455 250.301-86.455 95.427 0 183.156 32.958 252.426 88.112l-0.824-0.634 113.604-142.415c4.43-5.475 11.149-8.946 18.679-8.946 13.24 0 23.973 10.733 23.973 23.973 0 5.63-1.941 10.807-5.19 14.897l0.038-0.049-114.977 144.141c74.26 73.704 120.229 175.823 120.229 288.679 0 0.085 0 0.171 0 0.256v-0.013zM152 448c0 198.823 161.177 360 360 360s360-161.177 360-360c0-198.823-161.177-360-360-360v0c-198.728 0.236-359.764 161.272-360 359.977v0.023zM134.687 704.312c1.881 3.344 2.989 7.34 2.989 11.595 0 8.994-4.951 16.832-12.276 20.936l-0.121 0.062c-22.381 12.507-37.265 36.053-37.265 63.076 0 39.773 32.242 72.015 72.015 72.015 27.015 0 50.555-14.875 62.878-36.881l0.187-0.364c4.178-7.41 11.997-12.333 20.966-12.333 13.248 0 23.988 10.74 23.988 23.988 0 4.23-1.095 8.204-3.016 11.654l0.062-0.122c-20.844 37.28-60.072 62.069-105.091 62.069-66.274 0-120-53.726-120-120 0-45.027 24.799-84.261 61.483-104.79l0.607-0.312c3.346-1.887 7.346-2.999 11.606-2.999 8.993 0 16.829 4.956 20.926 12.286l0.062 0.121zM864 920c-0.001 0-0.002 0-0.003 0-45.008 0-84.226-24.788-104.748-61.456l-0.312-0.606c-1.901-3.359-3.022-7.376-3.022-11.655 0-13.248 10.74-23.988 23.988-23.988 9.018 0 16.874 4.977 20.971 12.333l0.062 0.122c12.511 22.36 36.045 37.227 63.052 37.227 39.769 0 72.009-32.24 72.009-72.009 0-27.014-14.876-50.554-36.883-62.875l-0.364-0.187c-7.459-4.165-12.419-12.010-12.419-21.013 0-13.246 10.736-23.984 23.981-23.987v0c0.011 0 0.024 0 0.038 0 4.233 0 8.206 1.112 11.643 3.061l-0.117-0.061c37.31 20.832 62.125 60.073 62.125 105.111 0 66.265-53.718 119.983-119.983 119.983-0.007 0-0.014 0-0.020 0h0.001zM704 472h-384c-13.255 0-24-10.745-24-24s10.745-24 24-24v0h384c13.255 0 24 10.745 24 24s-10.745 24-24 24v0z" />
<glyph unicode="&#xe90a;" glyph-name="alarm-plus" data-tags="alarm-plus" d="M920 448c0 0.123 0 0.269 0 0.415 0 225.332-182.668 408-408 408s-408-182.668-408-408c0-113.653 46.471-216.452 121.447-290.433l0.045-0.044-116.116-142.812c-3.419-4.116-5.494-9.456-5.494-15.279 0-13.251 10.742-23.993 23.993-23.993 7.567 0 14.315 3.503 18.713 8.975l0.036 0.047 115.117 141.578c68.215-53.897 155.456-86.455 250.301-86.455 95.427 0 183.156 32.958 252.426 88.112l-0.824-0.634 113.604-142.415c4.43-5.475 11.149-8.946 18.679-8.946 13.24 0 23.973 10.733 23.973 23.973 0 5.63-1.941 10.807-5.19 14.897l0.038-0.049-114.977 144.141c74.26 73.704 120.229 175.823 120.229 288.679 0 0.085 0 0.171 0 0.256v-0.013zM152 448c0 198.823 161.177 360 360 360s360-161.177 360-360c0-198.823-161.177-360-360-360v0c-198.728 0.236-359.764 161.272-360 359.977v0.023zM134.687 704.312c1.881 3.344 2.989 7.34 2.989 11.595 0 8.994-4.951 16.832-12.276 20.936l-0.121 0.062c-22.381 12.507-37.265 36.053-37.265 63.076 0 39.773 32.242 72.015 72.015 72.015 27.015 0 50.555-14.875 62.878-36.881l0.187-0.364c4.178-7.41 11.997-12.333 20.966-12.333 13.248 0 23.988 10.74 23.988 23.988 0 4.23-1.095 8.204-3.016 11.654l0.062-0.122c-20.844 37.28-60.072 62.069-105.091 62.069-66.274 0-120-53.726-120-120 0-45.027 24.799-84.261 61.483-104.79l0.607-0.312c3.346-1.887 7.346-2.999 11.606-2.999 8.993 0 16.829 4.956 20.926 12.286l0.062 0.121zM864 920c-0.001 0-0.002 0-0.003 0-45.008 0-84.226-24.788-104.748-61.456l-0.312-0.606c-1.901-3.359-3.022-7.376-3.022-11.655 0-13.248 10.74-23.988 23.988-23.988 9.018 0 16.874 4.977 20.971 12.333l0.062 0.122c12.511 22.36 36.045 37.227 63.052 37.227 39.769 0 72.009-32.24 72.009-72.009 0-27.014-14.876-50.554-36.883-62.875l-0.364-0.187c-7.459-4.165-12.419-12.010-12.419-21.013 0-13.246 10.736-23.984 23.981-23.987v0c0.011 0 0.024 0 0.038 0 4.233 0 8.206 1.112 11.643 3.061l-0.117-0.061c37.31 20.832 62.125 60.073 62.125 105.111 0 66.265-53.718 119.983-119.983 119.983-0.007 0-0.014 0-0.020 0h0.001zM704 472h-168v168c0 13.255-10.745 24-24 24s-24-10.745-24-24v0-168h-168c-13.255 0-24-10.745-24-24s10.745-24 24-24v0h168v-168c0-13.255 10.745-24 24-24s24 10.745 24 24v0 168h168c13.255 0 24 10.745 24 24s-10.745 24-24 24v0z" />
<glyph unicode="&#xe90b;" glyph-name="alarm-snooze" data-tags="alarm-snooze" d="M920 448c0 0.123 0 0.269 0 0.415 0 225.332-182.668 408-408 408s-408-182.668-408-408c0-113.653 46.471-216.452 121.447-290.433l0.045-0.044-116.116-142.812c-3.419-4.116-5.494-9.456-5.494-15.279 0-13.251 10.742-23.993 23.993-23.993 7.567 0 14.315 3.503 18.713 8.975l0.036 0.047 115.117 141.578c68.215-53.897 155.456-86.455 250.301-86.455 95.427 0 183.156 32.958 252.426 88.112l-0.824-0.634 113.604-142.415c4.43-5.475 11.149-8.946 18.679-8.946 13.24 0 23.973 10.733 23.973 23.973 0 5.63-1.941 10.807-5.19 14.897l0.038-0.049-114.977 144.141c74.26 73.704 120.229 175.823 120.229 288.679 0 0.085 0 0.171 0 0.256v-0.013zM152 448c0 198.823 161.177 360 360 360s360-161.177 360-360c0-198.823-161.177-360-360-360v0c-198.728 0.236-359.764 161.272-360 359.977v0.023zM134.687 704.312c1.881 3.344 2.989 7.34 2.989 11.595 0 8.994-4.951 16.832-12.276 20.936l-0.121 0.062c-22.381 12.507-37.265 36.053-37.265 63.076 0 39.773 32.242 72.015 72.015 72.015 27.015 0 50.555-14.875 62.878-36.881l0.187-0.364c4.178-7.41 11.997-12.333 20.966-12.333 13.248 0 23.988 10.74 23.988 23.988 0 4.23-1.095 8.204-3.016 11.654l0.062-0.122c-20.844 37.28-60.072 62.069-105.091 62.069-66.274 0-120-53.726-120-120 0-45.027 24.799-84.261 61.483-104.79l0.607-0.312c3.346-1.887 7.346-2.999 11.606-2.999 8.993 0 16.829 4.956 20.926 12.286l0.062 0.121zM864 920c-0.001 0-0.002 0-0.003 0-45.008 0-84.226-24.788-104.748-61.456l-0.312-0.606c-1.901-3.359-3.022-7.376-3.022-11.655 0-13.248 10.74-23.988 23.988-23.988 9.018 0 16.874 4.977 20.971 12.333l0.062 0.122c12.511 22.36 36.045 37.227 63.052 37.227 39.769 0 72.009-32.24 72.009-72.009 0-27.014-14.876-50.554-36.883-62.875l-0.364-0.187c-7.459-4.165-12.419-12.010-12.419-21.013 0-13.246 10.736-23.984 23.981-23.987v0c0.011 0 0.024 0 0.038 0 4.233 0 8.206 1.112 11.643 3.061l-0.117-0.061c37.31 20.832 62.125 60.073 62.125 105.111 0 66.265-53.718 119.983-119.983 119.983-0.007 0-0.014 0-0.020 0h0.001zM658.312 655.125h-283.937c-0.003 0-0.006 0-0.009 0-8.832 0-15.991-7.159-15.991-15.991 0-0.003 0-0.006 0-0.009v0-15.844c0-0.003 0-0.006 0-0.009 0-8.832 7.159-15.991 15.991-15.991 0.003 0 0.006 0 0.009 0h229.687l-251.094-327.594c-2.064-2.67-3.309-6.065-3.313-9.75v-13.063c0.006-8.834 7.166-15.994 15.999-16h292.157c8.83 0.017 15.983 7.17 16 15.998v15.814c-0.017 8.83-7.17 15.983-15.998 16h-237.91l251.094 327.625c2.059 2.661 3.304 6.044 3.312 9.717v13.096c-0.006 8.833-7.164 15.992-15.997 16h-0.001z" />
<glyph unicode="&#xe90c;" glyph-name="alarm-times" data-tags="alarm-times" d="M920 448c0 0.123 0 0.269 0 0.415 0 225.332-182.668 408-408 408s-408-182.668-408-408c0-113.653 46.471-216.452 121.447-290.433l0.045-0.044-116.116-142.812c-3.419-4.116-5.494-9.456-5.494-15.279 0-13.251 10.742-23.993 23.993-23.993 7.567 0 14.315 3.503 18.713 8.975l0.036 0.047 115.117 141.578c68.215-53.897 155.456-86.455 250.301-86.455 95.427 0 183.156 32.958 252.426 88.112l-0.824-0.634 113.604-142.415c4.43-5.475 11.149-8.946 18.679-8.946 13.24 0 23.973 10.733 23.973 23.973 0 5.63-1.941 10.807-5.19 14.897l0.038-0.049-114.977 144.141c74.26 73.704 120.229 175.823 120.229 288.679 0 0.085 0 0.171 0 0.256v-0.013zM152 448c0 198.823 161.177 360 360 360s360-161.177 360-360c0-198.823-161.177-360-360-360v0c-198.728 0.236-359.764 161.272-360 359.977v0.023zM134.687 704.312c1.881 3.344 2.989 7.34 2.989 11.595 0 8.994-4.951 16.832-12.276 20.936l-0.121 0.062c-22.381 12.507-37.265 36.053-37.265 63.076 0 39.773 32.242 72.015 72.015 72.015 27.015 0 50.555-14.875 62.878-36.881l0.187-0.364c4.178-7.41 11.997-12.333 20.966-12.333 13.248 0 23.988 10.74 23.988 23.988 0 4.23-1.095 8.204-3.016 11.654l0.062-0.122c-20.844 37.28-60.072 62.069-105.091 62.069-66.274 0-120-53.726-120-120 0-45.027 24.799-84.261 61.483-104.79l0.607-0.312c3.346-1.887 7.346-2.999 11.606-2.999 8.993 0 16.829 4.956 20.926 12.286l0.062 0.121zM864 920c-0.001 0-0.002 0-0.003 0-45.008 0-84.226-24.788-104.748-61.456l-0.312-0.606c-1.901-3.359-3.022-7.376-3.022-11.655 0-13.248 10.74-23.988 23.988-23.988 9.018 0 16.874 4.977 20.971 12.333l0.062 0.122c12.511 22.36 36.045 37.227 63.052 37.227 39.769 0 72.009-32.24 72.009-72.009 0-27.014-14.876-50.554-36.883-62.875l-0.364-0.187c-7.459-4.165-12.419-12.010-12.419-21.013 0-13.246 10.736-23.984 23.981-23.987v0c0.011 0 0.024 0 0.038 0 4.233 0 8.206 1.112 11.643 3.061l-0.117-0.061c37.31 20.832 62.125 60.073 62.125 105.111 0 66.265-53.718 119.983-119.983 119.983-0.007 0-0.014 0-0.020 0h0.001zM664.75 600.719c-4.353 4.345-10.363 7.031-17 7.031s-12.646-2.687-17-7.031v0l-118.754-118.754-118.78 118.754c-4.367 4.497-10.47 7.287-17.224 7.287-13.255 0-24-10.745-24-24 0-6.754 2.79-12.857 7.281-17.218l118.762-118.784-118.754-118.754c-4.356-4.348-7.051-10.359-7.051-17 0-13.266 10.754-24.019 24.019-24.019 6.625 0 12.624 2.682 16.969 7.020v0l118.778 118.778 118.754-118.778c4.351-4.351 10.361-7.042 17-7.042 13.278 0 24.042 10.764 24.042 24.042 0 6.639-2.691 12.649-7.042 17l-118.778 118.754 118.778 118.778c4.317 4.354 6.984 10.35 6.984 16.969s-2.668 12.614-6.986 16.97l0.002-0.002z" />
<glyph unicode="&#xe90d;" glyph-name="alien" data-tags="alien" d="M512 920c-184.064 0-341.75-171.562-341.75-312 0-129.125 290.688-458.816 323.843-496 4.412-4.915 10.783-7.994 17.874-8h0.032c0.012 0 0.027 0 0.041 0 7.058 0 13.403 3.055 17.784 7.915l0.019 0.021c33.408 37.188 326.156 366.876 326.156 496.064 0 140.438-158.75 312-344 312zM512.064 164.25c-96.157 110.438-293.814 355.686-293.814 443.75 21.578 146.491 143.788 258.473 293.196 263.984l0.553 0.016c150.674-5.009 273.729-117.061 295.786-262.286l0.214-1.714c0-88.031-199.125-333.312-295.936-443.75zM973.125 5.125c-26.643 119.22-95.568 219.088-189.868 285.247l-1.507 1.002c-3.833 2.707-8.602 4.326-13.75 4.326-13.262 0-24.013-10.751-24.013-24.013 0-8.115 4.025-15.29 10.188-19.637l0.076-0.051c86.090-60.32 148.033-150.027 171.467-254.301l0.533-2.824c2.42-10.87 11.98-18.875 23.411-18.875 0.009 0 0.019 0 0.028 0h-0.001c1.819 0.006 3.587 0.21 5.287 0.593l-0.162-0.031c10.867 2.444 18.864 12.012 18.864 23.448 0 1.812-0.201 3.577-0.581 5.275l0.030-0.16zM242.281 291.375c-95.825-67.151-164.764-167.023-190.814-283.109l-0.592-3.141c-0.352-1.54-0.554-3.309-0.554-5.125 0-13.25 10.741-23.991 23.991-23.991 11.434 0 21 7.999 23.407 18.706l0.030 0.16c23.954 107.096 85.887 196.803 170.612 256.224l1.356 0.901c6.296 4.388 10.365 11.593 10.365 19.749 0 13.253-10.743 23.996-23.996 23.996-5.172 0-9.963-1.637-13.881-4.42l0.074 0.050zM464.312 601.216c-9.073 19.709-23.691 35.565-41.849 45.928l-0.494 0.26c-15.105 7.368-32.864 11.675-51.629 11.675-2.264 0-4.513-0.063-6.746-0.186l0.31 0.014-50.094-0.906c-5.51-0.145-10.638-1.657-15.095-4.208l0.157 0.083c-1.444-0.927-2.701-1.915-3.855-3.011l0.011 0.011c-4.592-4.921-7.623-11.352-8.272-18.472l-0.009-0.122c-0.154-2.704-0.242-5.868-0.242-9.052 0-26.58 6.133-51.728 17.061-74.105l-0.441 1c11.447-23.731 31.139-41.972 55.274-51.264l0.695-0.235c11.487-3.613 24.697-5.694 38.393-5.694 2.071 0 4.131 0.048 6.178 0.142l-0.29-0.011h4.469l45.44 0.125c0.29-0.011 0.631-0.017 0.973-0.017 7.247 0 13.853 2.747 18.832 7.257l-0.024-0.021c5.312 6.034 8.555 14.003 8.555 22.729 0 0.854-0.031 1.701-0.092 2.539l0.007-0.112-0.876 7.344c-1.717 25.038-7.564 48.278-16.871 69.664l0.525-1.354zM405.812 541.060c-1.982-0.147-4.293-0.23-6.623-0.23-8.712 0-17.152 1.167-25.171 3.355l0.669-0.156c-12.809 5.297-22.886 15.039-28.488 27.261l-0.137 0.333c-5.606 11.274-9.452 24.402-10.781 38.265l-0.035 0.455 29.5 0.563c1.865 0.179 4.031 0.282 6.222 0.282 10.318 0 20.106-2.268 28.893-6.334l-0.426 0.177c9.57-5.841 17.040-14.296 21.52-24.374l0.137-0.345c5.133-11.444 8.742-24.718 10.143-38.644l0.044-0.544zM729 650.875c-1.010 0.96-2.112 1.844-3.286 2.631l-0.090 0.057c-4.364 2.633-9.599 4.259-15.2 4.437l-0.050 0.001-50.25 0.906c-1.979 0.117-4.294 0.184-6.624 0.184-18.701 0-36.396-4.312-52.143-11.995l0.705 0.31c-18.653-10.623-33.27-26.478-42.085-45.564l-0.258-0.624c-8.809-20.041-14.668-43.293-16.339-67.696l-0.036-0.648-0.906-7.436c-0.246-1.39-0.386-2.99-0.386-4.624 0-8.003 3.374-15.218 8.778-20.301l0.014-0.013c5.416-4.278 12.253-6.98 19.706-7.316l0.074-0.003 51.187-0.125c1.573-0.069 3.418-0.108 5.272-0.108 13.462 0 26.442 2.062 38.642 5.886l-0.914-0.247c24.881 9.545 44.621 27.804 55.859 50.956l0.266 0.606c10.468 21.448 16.588 46.666 16.588 73.313 0 3.408-0.1 6.792-0.297 10.15l0.022-0.463c-0.89 6.907-3.866 12.994-8.267 17.742l0.019-0.021zM678 571.625c-5.785-12.571-15.901-22.322-28.394-27.494l-0.356-0.131c-7.641-2.036-16.414-3.206-25.46-3.206-2.609 0-5.196 0.097-7.756 0.288l0.341-0.020-23.625 0.064c1.429 14.455 5.039 27.72 10.513 39.97l-0.325-0.814c4.637 10.412 12.088 18.868 21.39 24.615l0.235 0.135c8.426 3.878 18.283 6.14 28.668 6.14 2.142 0 4.261-0.096 6.354-0.285l-0.27 0.020 29.44-0.563c-1.38-14.316-5.201-27.442-11.052-39.393l0.297 0.673z" />
<glyph unicode="&#xe90e;" glyph-name="alien-head" data-tags="alien-head" d="M510.687 920c-212.563 0-394.719-197.937-394.719-360 0-149.184 338.25-532.75 376.813-576 4.412-4.915 10.783-7.994 17.873-8h0.032c0.012 0 0.027 0 0.041 0 7.058 0 13.403 3.055 17.784 7.915l0.019 0.021c38.844 43.25 379.469 426.844 379.469 576.064 0.001 162.063-183.312 360-397.312 360zM510.751 36.188c-111.345 127.5-346.783 418.906-346.783 523.812 0 125.625 145.594 312 346.719 312 184.875 0 349.312-174.468 349.312-312 0.001-104.844-237.186-396.312-349.249-523.812zM451.437 550.312c-10.206 22.246-26.67 40.149-47.133 51.863l-0.555 0.293c-17.276 8.272-37.553 13.105-58.959 13.105-2.399 0-4.785-0.061-7.154-0.181l0.333 0.013-59.437-1.094c-5.184-0.33-9.968-1.76-14.213-4.058l0.182 0.090c-1.591-0.985-2.971-2.058-4.229-3.259l0.010 0.009c-4.624-5.051-7.69-11.597-8.395-18.835l-0.011-0.134c-0.178-3.104-0.28-6.735-0.28-10.389 0-30.332 6.999-59.029 19.471-84.564l-0.503 1.141c12.878-26.798 35.083-47.401 62.311-57.891l0.782-0.265c13.051-4.068 28.057-6.412 43.61-6.412 2.467 0 4.92 0.059 7.358 0.176l-0.344-0.013h4.813l53.094 0.125c0.253-0.008 0.551-0.012 0.85-0.012 7.456 0 14.267 2.763 19.464 7.321l-0.034-0.029c5.446 6.329 8.763 14.626 8.763 23.698 0 0.821-0.027 1.635-0.081 2.443l0.006-0.11-1.032 8.688c-1.859 28.676-8.554 55.322-19.28 79.799l0.593-1.518zM386.875 477.907c-2.238-0.149-4.852-0.234-7.486-0.234-10.723 0-21.117 1.408-31.007 4.049l0.837-0.19c-15.964 6.554-28.535 18.649-35.548 33.837l-0.171 0.412c-7.344 14.826-12.148 32.139-13.354 50.434l-0.022 0.41c6.094 0.093 12.156 0.218 18.25 0.374l20.378 0.406c1.988 0.159 4.304 0.249 6.641 0.249 12.968 0 25.285-2.784 36.387-7.787l-0.559 0.225c11.919-7.255 21.236-17.748 26.86-30.26l0.172-0.428c6.639-15.053 11.196-32.512 12.77-50.823l0.043-0.615zM760.563 607.594c-0.985 0.866-2.066 1.689-3.203 2.433l-0.109 0.067c-4.378 2.486-9.58 4.035-15.124 4.248l-0.063 0.002-58.688 1.062c-2.262 0.135-4.906 0.212-7.569 0.212-21.146 0-41.159-4.851-58.986-13.502l0.805 0.352c-21.012-12.024-37.481-29.922-47.426-51.45l-0.292-0.706c-10.076-22.84-16.736-49.346-18.557-77.174l-0.037-0.701-1.062-8.876c-0.32-1.602-0.503-3.444-0.503-5.328 0-8.262 3.519-15.703 9.14-20.904l0.019-0.017c5.59-4.22 12.558-6.895 20.131-7.278l0.088-0.004 59.375-0.125c1.845-0.082 4.010-0.129 6.185-0.129 15.362 0 30.179 2.331 44.118 6.66l-1.053-0.282c27.974 10.759 50.146 31.349 62.703 57.44l0.297 0.685c11.991 24.222 19.007 52.742 19.007 82.9 0 3.465-0.093 6.908-0.275 10.327l0.020-0.477c-0.405 8.033-3.739 15.217-8.947 20.57l0.007-0.007zM707.812 515.75c-7.156-15.602-19.724-27.693-35.246-34.058l-0.441-0.16c-9.374-2.482-20.137-3.907-31.232-3.907-2.975 0-5.926 0.102-8.85 0.304l0.395-0.022-32.128 0.064c1.62 18.925 6.155 36.382 13.169 52.514l-0.417-1.076c5.84 12.921 15.157 23.405 26.764 30.518l0.298 0.17c10.707 4.751 23.196 7.516 36.332 7.516 2.149 0 4.28-0.074 6.391-0.22l-0.285 0.016 20.5-0.406q9.187-0.234 18.188-0.374c-1.236-18.722-6.062-36.045-13.794-51.675l0.357 0.797z" />
<glyph unicode="&#xe90f;" glyph-name="align-center" data-tags="align-center" d="M320 808h384c13.255 0 24 10.745 24 24s-10.745 24-24 24v0h-384c-13.255 0-24-10.745-24-24s10.745-24 24-24v0zM896 88h-768c-13.255 0-24-10.745-24-24s10.745-24 24-24v0h768c13.255 0 24 10.745 24 24s-10.745 24-24 24v0zM320 344c-13.255 0-24-10.745-24-24s10.745-24 24-24v0h384c13.255 0 24 10.745 24 24s-10.745 24-24 24v0zM128 552h768c13.255 0 24 10.745 24 24s-10.745 24-24 24v0h-768c-13.255 0-24-10.745-24-24s10.745-24 24-24v0z" />
<glyph unicode="&#xe910;" glyph-name="align-justify" data-tags="align-justify" d="M128 807.688h768c13.255 0 24 10.745 24 24s-10.745 24-24 24v0h-768c-13.255 0-24-10.745-24-24s10.745-24 24-24v0zM896 88h-768c-13.255 0-24-10.745-24-24s10.745-24 24-24v0h768c13.255 0 24 10.745 24 24s-10.745 24-24 24v0zM896 345.187h-768c-13.255 0-24-10.745-24-24s10.745-24 24-24v0h768c13.255 0 24 10.745 24 24s-10.745 24-24 24v0zM896 600h-768c-13.255 0-24-10.745-24-24s10.745-24 24-24v0h768c13.255 0 24 10.745 24 24s-10.745 24-24 24v0z" />
<glyph unicode="&#xe911;" glyph-name="align-left" data-tags="align-left" d="M128 808h384c13.255 0 24 10.745 24 24s-10.745 24-24 24v0h-384c-13.255 0-24-10.745-24-24s10.745-24 24-24v0zM896 88h-768c-13.255 0-24-10.745-24-24s10.745-24 24-24v0h768c13.255 0 24 10.745 24 24s-10.745 24-24 24v0zM128 296h384c13.255 0 24 10.745 24 24s-10.745 24-24 24v0h-384c-13.255 0-24-10.745-24-24s10.745-24 24-24v0zM128 552h768c13.255 0 24 10.745 24 24s-10.745 24-24 24v0h-768c-13.255 0-24-10.745-24-24s10.745-24 24-24v0z" />
<glyph unicode="&#xe912;" glyph-name="align-right" data-tags="align-right" d="M512 808h384c13.255 0 24 10.745 24 24s-10.745 24-24 24v0h-384c-13.255 0-24-10.745-24-24s10.745-24 24-24v0zM896 88h-768c-13.255 0-24-10.745-24-24s10.745-24 24-24v0h768c13.255 0 24 10.745 24 24s-10.745 24-24 24v0zM896 344h-384c-13.255 0-24-10.745-24-24s10.745-24 24-24v0h384c13.255 0 24 10.745 24 24s-10.745 24-24 24v0zM896 600h-768c-13.255 0-24-10.745-24-24s10.745-24 24-24v0h768c13.255 0 24 10.745 24 24s-10.745 24-24 24v0z" />
<glyph unicode="&#xe913;" glyph-name="aperture" data-tags="aperture" d="M512 920c-260.678 0-472-211.322-472-472s211.322-472 472-472c260.678 0 472 211.322 472 472v0c-0.312 260.552-211.447 471.687-471.97 472h-0.030zM590.5 312h-157.023l-78.516 136 78.528 136h157.527l78.035-135.936zM646.348 584h266.868c14.439-40.711 22.782-87.665 22.782-136.567 0-89.227-27.777-171.966-75.155-240.043l0.908 1.378zM893.402 632h-432.199l133.805 231.731c132.4-27.471 240.38-113.527 297.284-229.233l1.11-2.497zM512 872c10.605 0 21.004-0.82 31.414-1.59l-216.164-374.418-133.504 231.232c77.848 88.869 191.523 144.7 318.241 144.776h0.013zM161.792 686.592l216.27-374.592h-267.284c-14.436 40.711-22.777 87.664-22.777 136.566 0 88.952 27.601 171.457 74.705 239.419l-0.913-1.393zM130.597 264h432.196l-133.773-231.731c-132.41 27.466-240.402 113.523-297.315 229.233l-1.11 2.498zM512 24c-10.602 0-21.004 0.82-31.414 1.59l216.128 374.297 133.016-231.711c-77.822-88.521-191.278-144.108-317.718-144.176h-0.012z" />
<glyph unicode="&#xe914;" glyph-name="apostrophe" data-tags="apostrophe" d="M632.128 769.156l0.18 36.449 0.133 1.3c0.001 0.163 0.001 0.356 0.001 0.548 0 62.781-50.894 113.675-113.675 113.675s-113.675-50.894-113.675-113.675c0-62.781 50.894-113.675 113.675-113.675 24.483 0 47.159 7.74 65.713 20.907l-0.352-0.237c0.020-2.703-0.031-5.398 0-8.106l0.128-7.344c0.334-6.557 0.525-14.238 0.525-21.963 0-23.933-1.829-47.439-5.356-70.385l0.324 2.564c-2.293-16.555-8.585-31.317-17.863-43.714l0.176 0.246c-11.224-11.909-25.508-20.814-41.598-25.463l-0.653-0.161c-21.949-8.196-48.474-15.62-75.754-20.93l-3.308-0.536c-11.329-2.062-19.806-11.854-19.806-23.625 0-13.251 10.742-23.993 23.993-23.993 1.48 0 2.928 0.134 4.334 0.39l-0.147-0.022c33.391 6.34 62.364 14.416 90.316 24.611l-3.973-1.267c25.299 7.696 46.771 21.654 63.357 40.093l0.111 0.126c14.238 18.174 24.174 40.376 27.901 64.625l0.099 0.783c3.71 22.983 5.83 49.477 5.83 76.466 0 8.036-0.188 16.028-0.56 23.972l0.042-1.125-0.122 7.248c-0.256 20.719-0.128 41.469 0 62.219zM519.347 741.781c-0.023 0-0.051 0-0.078 0-35.959 0-65.11 29.151-65.11 65.11s29.151 65.11 65.11 65.11c35.845 0 64.925-28.966 65.109-64.768v-0.018l-0.064-0.308-0.006-0.634c-0.346-35.644-29.283-64.414-64.957-64.491h-0.007z" />
<glyph unicode="&#xe915;" glyph-name="apps" data-tags="apps" d="M384 920h-256c-48.58-0.051-87.949-39.419-88-87.995v-256.005c0.051-48.58 39.419-87.949 87.995-88h256.005c48.58 0.051 87.949 39.419 88 87.995v256.005c-0.051 48.58-39.419 87.949-87.995 88h-0.005zM424 576c-0.021-22.083-17.917-39.979-39.998-40h-256.002c-22.083 0.021-39.979 17.917-40 39.998v256.002c0.021 22.083 17.917 39.979 39.998 40h256.002c22.083-0.021 39.979-17.917 40-39.998v-0.002zM384 408h-256c-48.576-0.062-87.938-39.424-88-87.994v-256.006c0.062-48.576 39.424-87.938 87.994-88h256.006c48.576 0.062 87.938 39.424 88 87.994v256.006c-0.062 48.576-39.424 87.938-87.994 88h-0.006zM424 64c-0.021-22.083-17.917-39.979-39.998-40h-256.002c-22.083 0.021-39.979 17.917-40 39.998v256.002c0.021 22.083 17.917 39.979 39.998 40h256.002c22.083-0.021 39.979-17.917 40-39.998v-0.002zM896 920h-256c-48.576-0.062-87.938-39.424-88-87.994v-256.006c0.062-48.576 39.424-87.938 87.994-88h256.006c48.576 0.062 87.938 39.424 88 87.994v256.006c-0.062 48.576-39.424 87.938-87.994 88h-0.006zM936 576c-0.021-22.083-17.917-39.979-39.998-40h-256.002c-22.083 0.021-39.979 17.917-40 39.998v256.002c0.021 22.083 17.917 39.979 39.998 40h256.002c22.083-0.021 39.979-17.917 40-39.998v-0.002zM896 408h-256c-48.572-0.073-87.927-39.428-88-87.993v-256.007c0.073-48.572 39.428-87.927 87.993-88h256.007c48.572 0.073 87.927 39.428 88 87.993v256.007c-0.073 48.572-39.428 87.927-87.993 88h-0.007zM936 64c-0.021-22.083-17.917-39.979-39.998-40h-256.002c-22.083 0.021-39.979 17.917-40 39.998v256.002c0.021 22.083 17.917 39.979 39.998 40h256.002c22.083-0.021 39.979-17.917 40-39.998v-0.002z" />
<glyph unicode="&#xe916;" glyph-name="archive-box" data-tags="archive-box" d="M896 920h-768c-48.58-0.051-87.949-39.419-88-87.995v-128.036c0.004-13.253 10.747-23.996 24-24h40v-615.905c0.062-48.576 39.424-87.938 87.994-88h640.006c48.572 0.073 87.927 39.428 88 87.993v615.912h40c13.253 0.004 23.996 10.747 24 24v0 128.031c-0.062 48.576-39.424 87.938-87.994 88h-0.006zM872 64.064c-0.021-22.083-17.917-39.979-39.998-40h-640.002c-22.083 0.021-39.979 17.917-40 39.998v615.907h720zM936 727.97h-848v104.030c0.021 22.083 17.917 39.979 39.998 40h768.002c22.083-0.021 39.979-17.917 40-39.998v-0.002zM320 488h384c13.255 0 24 10.745 24 24s-10.745 24-24 24v0h-384c-13.255 0-24-10.745-24-24s10.745-24 24-24v0z" />
<glyph unicode="&#xe917;" glyph-name="arrow-down" data-tags="arrow-down" d="M849 337c-4.353 4.345-10.363 7.032-17 7.032s-12.647-2.687-17-7.033v0l-279-279.062v838.063c0 13.255-10.745 24-24 24s-24-10.745-24-24v0-838.031l-279.031 279.031c-4.339 4.302-10.314 6.96-16.909 6.96-13.266 0-24.020-10.754-24.020-24.020 0-6.611 2.671-12.598 6.992-16.941l319.999-319.999c0.82-0.82 2.067-0.547 2.969-1.222 1.664-1.293 2.808-3.125 4.813-3.965 2.717-1.131 5.872-1.796 9.181-1.812h0.007c6.621 0 12.618 2.674 16.97 7.001l320.030 319.999c4.317 4.366 6.984 10.372 6.984 17s-2.667 12.634-6.986 17.002l0.002-0.002z" />
<glyph unicode="&#xe918;" glyph-name="arrow-down-1-9" data-tags="arrow-down-1-9" d="M367.031 177l-119.031-119.062v838.063c0 13.255-10.745 24-24 24s-24-10.745-24-24v0-838.031l-119.031 119.031c-4.339 4.302-10.314 6.96-16.909 6.96-13.266 0-24.020-10.754-24.020-24.020 0-6.611 2.671-12.598 6.992-16.941l159.999-159.999c0.82-0.82 2.067-0.547 2.969-1.222 1.664-1.293 2.808-3.125 4.813-3.965 2.717-1.131 5.872-1.796 9.181-1.812h0.007c6.621 0 12.618 2.674 16.97 7.001l159.999 159.999c4.32 4.342 6.991 10.329 6.991 16.94 0 13.266-10.754 24.020-24.020 24.020-6.596 0-12.57-2.658-16.911-6.962l0.002 0.002zM867.875 354.875c-24.553 24.617-58.508 39.847-96.019 39.847-1.070 0-2.137-0.012-3.202-0.037l0.158 0.003c-0.905 0.021-1.97 0.033-3.039 0.033-37.837 0-72.126-15.188-97.104-39.8l0.017 0.017c-25.131-24.421-40.724-58.54-40.724-96.302 0-1.103 0.013-2.202 0.040-3.298l-0.003 0.163c-0.027-1.018-0.042-2.216-0.042-3.417 0-37.375 14.868-71.277 39.011-96.116l-0.032 0.033c25.457-24.892 60.327-40.251 98.784-40.251 12.219 0 24.075 1.55 35.384 4.465l-0.981-0.214-86.938-115.125c-1.188-1.581-1.902-3.577-1.902-5.739 0-1.577 0.38-3.064 1.053-4.377l-0.025 0.054c1.561-3.206 4.795-5.376 8.535-5.376 0.010 0 0.019 0 0.029 0h19.623c3.138 0.010 5.92 1.52 7.67 3.85l0.018 0.025 128.5 172.127c19.245 24.628 30.975 55.943 31.312 89.986l0.001 0.077c0.027 1.010 0.043 2.2 0.043 3.393 0 37.557-15.365 71.526-40.152 95.964l-0.016 0.016zM768.813 360.187c0.89 0.029 1.937 0.045 2.987 0.045 27.946 0 53.206-11.5 71.307-30.026l0.019-0.019c18.497-19.337 29.882-45.609 29.882-74.541 0-28.74-11.235-54.856-29.553-74.196l0.046 0.049c-19.588-19.32-46.507-31.252-76.212-31.252-28.978 0-55.305 11.355-74.772 29.858l0.046-0.044c-18.309 18.399-29.628 43.768-29.628 71.782 0 1.286 0.024 2.566 0.071 3.84l-0.005-0.184c-0.024 0.819-0.038 1.782-0.038 2.748 0 28.187 11.646 53.654 30.388 71.852l0.024 0.024c18.486 18.599 44.085 30.11 72.372 30.11 1.078 0 2.152-0.017 3.222-0.050l-0.157 0.004zM719.625 817.062l75.5 42.188v-371.531c0.003-5.299 4.3-9.594 9.6-9.594 0.009 0 0.018 0 0.026 0h16.311c0.007 0 0.016 0 0.025 0 5.3 0 9.597 4.295 9.6 9.594v0 408.281c-0.004 5.299-4.3 9.594-9.6 9.594-0.009 0-0.018 0-0.026 0h-13.375c-0.008 0-0.017 0-0.027 0-1.712 0-3.319-0.451-4.708-1.241l0.047 0.025-92.75-51.904c-2.966-1.661-4.938-4.783-4.938-8.366 0-0.003 0-0.007 0-0.010v0.001-18.656c0.001-3.513 1.889-6.584 4.706-8.257l0.044-0.024c1.397-0.82 3.077-1.304 4.87-1.304 1.722 0 3.339 0.447 4.743 1.231l-0.049-0.025z" />
<glyph unicode="&#xe919;" glyph-name="arrow-down-9-1" data-tags="arrow-down-9-1" d="M367.031 177l-119.031-119.062v838.063c0 13.255-10.745 24-24 24s-24-10.745-24-24v0-838.031l-119.031 119.031c-4.339 4.302-10.314 6.96-16.909 6.96-13.266 0-24.020-10.754-24.020-24.020 0-6.611 2.671-12.598 6.992-16.941l159.999-159.999c0.82-0.82 2.067-0.547 2.969-1.222 1.664-1.293 2.808-3.125 4.813-3.965 2.717-1.131 5.872-1.796 9.181-1.812h0.007c6.621 0 12.618 2.674 16.97 7.001l159.999 159.999c4.32 4.342 6.991 10.329 6.991 16.94 0 13.266-10.754 24.020-24.020 24.020-6.596 0-12.57-2.658-16.911-6.962l0.002 0.002zM867.875 866.813c-24.547 24.615-58.495 39.844-96 39.844-1.055 0-2.107-0.012-3.157-0.036l0.156 0.003c-0.94 0.023-2.047 0.036-3.158 0.036-37.78 0-72.011-15.192-96.918-39.8l0.014 0.014c-25.203-24.391-40.848-58.526-40.848-96.315 0-1.087 0.013-2.17 0.039-3.25l-0.003 0.16c-0.027-1.018-0.042-2.216-0.042-3.418 0-37.385 14.867-71.297 39.012-96.146l-0.032 0.033c24.159-24.855 57.909-40.276 95.262-40.276 1.38 0 2.756 0.021 4.126 0.063l-0.201-0.005c0.183-0.001 0.4-0.001 0.616-0.001 11.86 0 23.364 1.528 34.324 4.398l-0.941-0.209-86.875-115.125c-1.186-1.583-1.898-3.579-1.898-5.742 0-5.304 4.286-9.606 9.584-9.633h19.628c3.13 0.012 5.909 1.508 7.67 3.82l0.017 0.024 128.437 172.096c19.276 24.639 31.029 55.976 31.375 90.046l0.001 0.079c0.024 0.956 0.038 2.081 0.038 3.209 0 37.617-15.387 71.64-40.21 96.118l-0.015 0.015zM873 766.375c0.003-0.286 0.005-0.623 0.005-0.961 0-28.052-11.264-53.472-29.516-71.986l0.012 0.012c-19.562-19.339-46.467-31.285-76.163-31.285-28.985 0-55.312 11.381-74.755 29.918l0.043-0.041c-18.346 18.39-29.69 43.771-29.69 71.802 0 1.278 0.024 2.551 0.070 3.818l-0.005-0.183c-0.023 0.799-0.036 1.74-0.036 2.683 0 28.187 11.645 53.654 30.386 71.853l0.024 0.024c18.495 18.653 44.131 30.201 72.464 30.201 1.068 0 2.132-0.016 3.191-0.049l-0.155 0.004c0.859 0.027 1.87 0.042 2.884 0.042 27.995 0 53.296-11.537 71.408-30.115l0.020-0.021c18.458-18.521 29.87-44.073 29.87-72.291 0-1.205-0.021-2.404-0.062-3.599l0.005 0.173zM821.062 403.688h-13.376c-0.006 0-0.014 0-0.022 0-1.714 0-3.322-0.452-4.712-1.244l0.047 0.025-92.75-51.904c-2.965-1.652-4.938-4.768-4.938-8.345 0-0.011 0-0.021 0-0.032v0.002-18.624c0.033-5.299 4.337-9.582 9.641-9.582 1.715 0 3.325 0.448 4.72 1.232l-0.048-0.025 75.501 42.122v-371.5c0.002-5.315 4.31-9.623 9.625-9.625h16.313c5.315 0.002 9.623 4.31 9.625 9.625v0 408.282c-0.003 5.299-4.3 9.594-9.6 9.594-0.009 0-0.018 0-0.026 0h0.001z" />
<glyph unicode="&#xe91a;" glyph-name="arrow-down-a-z" data-tags="arrow-down-a-z" d="M367.031 177l-119.031-119.062v838.063c0 13.255-10.745 24-24 24s-24-10.745-24-24v0-838.031l-119.031 119.031c-4.339 4.302-10.314 6.96-16.909 6.96-13.266 0-24.020-10.754-24.020-24.020 0-6.611 2.671-12.598 6.992-16.941l159.999-159.999c0.82-0.82 2.067-0.547 2.969-1.222 1.664-1.293 2.808-3.125 4.813-3.965 2.717-1.131 5.872-1.796 9.181-1.812h0.007c6.621 0 12.618 2.674 16.97 7.001l159.999 159.999c4.32 4.342 6.991 10.329 6.991 16.94 0 13.266-10.754 24.020-24.020 24.020-6.596 0-12.57-2.658-16.911-6.962l0.002 0.002zM753.812 900.096c-1.566 3.275-4.854 5.498-8.66 5.498-0.010 0-0.019 0-0.029 0h-18.687c-0.008 0-0.018 0-0.027 0-3.806 0-7.094-2.222-8.635-5.44l-0.025-0.058-180.468-384c-0.577-1.197-0.913-2.603-0.913-4.087 0-5.302 4.298-9.6 9.6-9.6 0 0 0.001 0 0.001 0h17c0.002 0 0.004 0 0.005 0 3.821 0 7.119 2.237 8.657 5.473l0.025 0.058 42.969 91.563h241.812l43.437-91.625c1.598-3.255 4.884-5.458 8.686-5.469h17.001c0.014 0 0.031 0 0.048 0 5.286 0 9.571 4.285 9.571 9.571 0 1.496-0.343 2.912-0.956 4.174l0.025-0.057zM630.75 634.594l105 222.406 104.438-222.406zM882.688 393.469h-285.063c-0.007 0-0.016 0-0.025 0-5.3 0-9.596-4.294-9.6-9.593v0-15.875c0.002-5.315 4.31-9.623 9.625-9.625h243.688l-260.125-339.313c-1.236-1.591-1.986-3.613-2-5.809v-13.128c0.003-5.315 4.311-9.622 9.625-9.625h293.312c5.315 0.003 9.622 4.31 9.625 9.625v0 15.875c-0.002 5.315-4.31 9.623-9.625 9.625h-251.937l260.125 339.313c1.236 1.591 1.986 3.613 2 5.809v13.125c-0.002 5.301-4.299 9.597-9.6 9.597-0.009 0-0.017 0-0.026 0h0.001z" />
<glyph unicode="&#xe91b;" glyph-name="arrow-down-from-line" data-tags="arrow-down-from-line" d="M655 177l-119-119.062v646.063c0 13.255-10.745 24-24 24s-24-10.745-24-24v0-646.031l-119.031 119.031c-4.339 4.302-10.314 6.96-16.909 6.96-13.266 0-24.020-10.754-24.020-24.020 0-6.611 2.671-12.598 6.992-16.941l159.999-159.999c0.82-0.82 2.067-0.547 2.969-1.222 1.664-1.293 2.808-3.125 4.813-3.965 2.717-1.131 5.872-1.796 9.181-1.812h0.007c6.621 0 12.618 2.674 16.97 7.001l160.030 159.999c4.351 4.351 7.042 10.361 7.042 17 0 13.278-10.764 24.042-24.042 24.042-6.639 0-12.649-2.691-17-7.042v0zM960 920h-896c-13.255 0-24-10.745-24-24s10.745-24 24-24v0h896c13.255 0 24 10.745 24 24s-10.745 24-24 24v0z" />
<glyph unicode="&#xe91c;" glyph-name="arrow-down-left" data-tags="arrow-down-left" d="M845.812 781.75c-4.353 4.345-10.363 7.032-17 7.032s-12.647-2.687-17-7.033v0l-592.594-592.593v394.593c0 13.255-10.745 24-24 24s-24-10.745-24-24v0-452.563c0.034-3.171 0.682-6.181 1.832-8.93l-0.058 0.157 0.039-0.414 0.059-0.070c1.781-3.87 4.442-7.071 7.738-9.444l0.070-0.048c0.702-0.549 1.491-1.089 2.315-1.577l0.103-0.057c3.376-2.171 7.473-3.503 11.874-3.617l0.030-0.001h452.531c13.255 0 24 10.745 24 24s-10.745 24-24 24v0h-394.595l592.656 592.625c4.317 4.354 6.984 10.35 6.984 16.969s-2.668 12.614-6.986 16.97l0.002-0.002z" />
<glyph unicode="&#xe91d;" glyph-name="arrow-down-narrow-wide" data-tags="arrow-down-narrow-wide" d="M367.031 177l-119.031-119.031v838.031c0 13.255-10.745 24-24 24s-24-10.745-24-24v0-838.063l-119.031 119.062c-4.339 4.302-10.314 6.96-16.909 6.96-13.266 0-24.020-10.754-24.020-24.020 0-6.611 2.671-12.598 6.992-16.941l159.999-159.999c4.351-4.326 10.347-6.999 16.969-7v0c3.315 0.017 6.47 0.681 9.352 1.873l-0.165-0.060c2.004 0.84 3.149 2.672 4.813 3.965 0.902 0.676 2.148 0.403 2.969 1.222l160 160c4.32 4.342 6.991 10.329 6.991 16.94 0 13.266-10.754 24.020-24.020 24.020-6.596 0-12.57-2.658-16.911-6.962l0.002 0.002zM960 88h-352c-13.255 0-24-10.745-24-24s10.745-24 24-24v0h352c13.255 0 24 10.745 24 24s-10.745 24-24 24v0zM608 232h288c13.255 0 24 10.745 24 24s-10.745 24-24 24v0h-288c-13.255 0-24-10.745-24-24s10.745-24 24-24v0zM608 808h96c13.255 0 24 10.745 24 24s-10.745 24-24 24v0h-96c-13.255 0-24-10.745-24-24s10.745-24 24-24v0zM608 616h160c13.255 0 24 10.745 24 24s-10.745 24-24 24v0h-160c-13.255 0-24-10.745-24-24s10.745-24 24-24v0zM608 424h224c13.255 0 24 10.745 24 24s-10.745 24-24 24v0h-224c-13.255 0-24-10.745-24-24s10.745-24 24-24v0z" />
<glyph unicode="&#xe91e;" glyph-name="arrow-down-right" data-tags="arrow-down-right" d="M852.813 583.75c0 13.255-10.745 24-24 24s-24-10.745-24-24v0-394.624l-592.625 592.624c-4.316 4.192-10.213 6.776-16.713 6.776-13.255 0-24-10.745-24-24 0-6.5 2.584-12.397 6.782-16.719l592.56-592.619h-394.566c-13.255 0-24-10.745-24-24s10.745-24 24-24v0h452.563c3.315 0.017 6.47 0.681 9.352 1.873l-0.165-0.060 0.070 0.059c3.886 1.789 7.099 4.465 9.475 7.78l0.049 0.071c0.533 0.682 1.058 1.449 1.534 2.249l0.056 0.102c2.179 3.381 3.516 7.486 3.629 11.896l0.001 0.030z" />
<glyph unicode="&#xe91f;" glyph-name="arrow-down-to-bracket" data-tags="arrow-down-to-bracket" d="M960 280c-13.253-0.004-23.996-10.747-24-24v0-232h-848v232c0 13.255-10.745 24-24 24s-24-10.745-24-24v0-256c0.004-13.253 10.747-23.996 24-24h896c13.253 0.004 23.996 10.747 24 24v0 256c-0.004 13.253-10.747 23.996-24 24v0zM495.031 175c0.82-0.82 2.067-0.547 2.969-1.222 1.664-1.293 2.808-3.125 4.813-3.965 2.717-1.131 5.872-1.796 9.181-1.812h0.007c6.621 0 12.618 2.674 16.97 7.001l160.030 159.999c4.351 4.351 7.042 10.361 7.042 17 0 13.278-10.764 24.042-24.042 24.042-6.639 0-12.649-2.691-17-7.042l-119-119.062v646.063c0 13.255-10.745 24-24 24s-24-10.745-24-24v0-646.031l-119.031 119.031c-4.339 4.302-10.314 6.96-16.909 6.96-13.266 0-24.020-10.754-24.020-24.020 0-6.611 2.671-12.598 6.992-16.941l-0.001 0.001z" />
<glyph unicode="&#xe920;" glyph-name="arrow-down-to-line" data-tags="arrow-down-to-line" d="M495.031 175c0.82-0.82 2.067-0.547 2.969-1.222 1.664-1.293 2.808-3.125 4.813-3.965 2.717-1.131 5.872-1.796 9.181-1.812h0.007c6.621 0 12.618 2.674 16.97 7.001l160.030 159.999c4.351 4.351 7.042 10.361 7.042 17 0 13.278-10.764 24.042-24.042 24.042-6.639 0-12.649-2.691-17-7.042l-119-119.062v646.063c0 13.255-10.745 24-24 24s-24-10.745-24-24v0-646.031l-119.031 119.031c-4.339 4.302-10.314 6.96-16.909 6.96-13.266 0-24.020-10.754-24.020-24.020 0-6.611 2.671-12.598 6.992-16.941l-0.001 0.001zM960 24h-896c-13.255 0-24-10.745-24-24s10.745-24 24-24v0h896c13.255 0 24 10.745 24 24s-10.745 24-24 24v0z" />
<glyph unicode="&#xe921;" glyph-name="arrow-down-wide-narrow" data-tags="arrow-down-wide-narrow" d="M367.031 177l-119.031-119.031v838.031c0 13.255-10.745 24-24 24s-24-10.745-24-24v0-838.063l-119.031 119.062c-4.339 4.302-10.314 6.96-16.909 6.96-13.266 0-24.020-10.754-24.020-24.020 0-6.611 2.671-12.598 6.992-16.941l159.999-159.999c4.351-4.326 10.347-6.999 16.969-7v0c3.315 0.017 6.47 0.681 9.352 1.873l-0.165-0.060c2.004 0.84 3.149 2.672 4.813 3.965 0.902 0.676 2.148 0.403 2.969 1.222l160 160c4.32 4.342 6.991 10.329 6.991 16.94 0 13.266-10.754 24.020-24.020 24.020-6.596 0-12.57-2.658-16.911-6.962l0.002 0.002zM960 856h-352c-13.255 0-24-10.745-24-24s10.745-24 24-24v0h352c13.255 0 24 10.745 24 24s-10.745 24-24 24v0zM896 664h-288c-13.255 0-24-10.745-24-24s10.745-24 24-24v0h288c13.255 0 24 10.745 24 24s-10.745 24-24 24v0zM704 88h-96c-13.255 0-24-10.745-24-24s10.745-24 24-24v0h96c13.255 0 24 10.745 24 24s-10.745 24-24 24v0zM768 280h-160c-13.255 0-24-10.745-24-24s10.745-24 24-24v0h160c13.255 0 24 10.745 24 24s-10.745 24-24 24v0zM832 472h-224c-13.255 0-24-10.745-24-24s10.745-24 24-24v0h224c13.255 0 24 10.745 24 24s-10.745 24-24 24v0z" />
<glyph unicode="&#xe922;" glyph-name="arrow-down-z-a" data-tags="arrow-down-z-a" d="M367.031 177l-119.031-119.062v838.063c0 13.255-10.745 24-24 24s-24-10.745-24-24v0-838.031l-119.031 119.031c-4.339 4.302-10.314 6.96-16.909 6.96-13.266 0-24.020-10.754-24.020-24.020 0-6.611 2.671-12.598 6.992-16.941l159.999-159.999c0.82-0.82 2.067-0.547 2.969-1.222 1.664-1.293 2.808-3.125 4.813-3.965 2.717-1.131 5.872-1.796 9.181-1.812h0.007c6.621 0 12.618 2.674 16.97 7.001l159.999 159.999c4.32 4.342 6.991 10.329 6.991 16.94 0 13.266-10.754 24.020-24.020 24.020-6.596 0-12.57-2.658-16.911-6.962l0.002 0.002zM754.063 388.096c-1.566 3.277-4.854 5.5-8.661 5.5-0.009 0-0.019 0-0.028 0h-18.687c-0.008 0-0.017 0-0.026 0-3.807 0-7.095-2.223-8.636-5.443l-0.025-0.058-180.499-384.033c-0.563-1.187-0.891-2.579-0.891-4.048 0-5.302 4.281-9.605 9.575-9.639h17.034c3.828 0.011 7.127 2.259 8.663 5.504l0.025 0.058 42.968 91.563h241.812l43.437-91.625c1.605-3.254 4.884-5.462 8.683-5.5h17.005c5.301 0.008 9.596 4.307 9.596 9.61 0 1.481-0.335 2.883-0.933 4.136l0.025-0.058zM631 122.624l105 222.376 104.438-222.374zM588.813 502.528h293.312c0.007 0 0.016 0 0.025 0 5.3 0 9.596 4.294 9.6 9.593v0 15.91c-0.004 5.299-4.3 9.594-9.6 9.594-0.009 0-0.018 0-0.026 0h-251.936l260.125 339.281c1.227 1.606 1.975 3.635 2 5.838v13.162c-0.004 5.299-4.3 9.594-9.6 9.594-0.009 0-0.017 0-0.026 0h-285.062c-0.007 0-0.016 0-0.025 0-5.3 0-9.596-4.294-9.6-9.593v0-15.907c0.004-5.299 4.3-9.594 9.6-9.594 0.009 0 0.018 0 0.026 0h243.687l-260.125-339.281c-1.227-1.606-1.975-3.635-2-5.838v-13.162c0.002-5.301 4.299-9.597 9.6-9.597 0.009 0 0.018 0 0.027 0h-0.001z" />
<glyph unicode="&#xe923;" glyph-name="arrow-left" data-tags="arrow-left" d="M960 472h-838.063l279.032 279.031c4.205 4.319 6.798 10.224 6.798 16.736 0 13.255-10.745 24-24 24-6.511 0-12.417-2.593-16.741-6.803l-319.995-319.995c-0.797-0.797-0.531-2.008-1.191-2.88-1.32-1.687-3.18-2.859-4.028-4.902-0.402-1.607-0.632-3.452-0.632-5.351 0-0.331 0.007-0.66 0.021-0.988l-0.002 0.047c-0.292-1.31-0.46-2.815-0.46-4.359 0-0.115 0.001-0.23 0.003-0.344v0.017c0.191-5.894 2.55-11.203 6.3-15.188l-0.011 0.012 320-320.031c4.351-4.373 10.374-7.079 17.029-7.079 13.266 0 24.020 10.754 24.020 24.020 0 6.67-2.719 12.705-7.109 17.058l-279.034 279.001h838.063c13.255 0 24 10.745 24 24s-10.745 24-24 24v0z" />
<glyph unicode="&#xe924;" glyph-name="arrow-left-from-bracket" data-tags="arrow-left-from-bracket" d="M960 920h-256c-13.255 0-24-10.745-24-24s10.745-24 24-24v0h232v-848h-232c-13.255 0-24-10.745-24-24s10.745-24 24-24v0h256c13.253 0.004 23.996 10.747 24 24v0 896c-0.004 13.253-10.747 23.996-24 24v0zM121.937 424h646.063c13.255 0 24 10.745 24 24s-10.745 24-24 24v0h-646.063l119.032 119.031c4.205 4.319 6.798 10.224 6.798 16.736 0 13.255-10.745 24-24 24-6.511 0-12.417-2.593-16.741-6.803l-159.995-159.995c-0.797-0.797-0.531-2.008-1.191-2.88-1.32-1.687-3.18-2.859-4.028-4.902-0.402-1.607-0.632-3.452-0.632-5.351 0-0.331 0.007-0.66 0.021-0.988l-0.002 0.047c-0.292-1.31-0.46-2.815-0.46-4.359 0-0.115 0.001-0.23 0.003-0.344v0.017c0.191-5.894 2.55-11.203 6.3-15.188l-0.011 0.012 160-160.031c4.339-4.302 10.314-6.96 16.909-6.96 13.266 0 24.020 10.754 24.020 24.020 0 6.611-2.671 12.598-6.992 16.941l0.001-0.001z" />
<glyph unicode="&#xe925;" glyph-name="arrow-left-from-line" data-tags="arrow-left-from-line" d="M768 472h-646.063l119.032 119.031c4.205 4.319 6.798 10.224 6.798 16.736 0 13.255-10.745 24-24 24-6.511 0-12.417-2.593-16.741-6.803l-159.995-159.995c-0.797-0.797-0.531-2.008-1.191-2.88-1.32-1.687-3.18-2.859-4.028-4.902-0.402-1.607-0.632-3.452-0.632-5.351 0-0.331 0.007-0.66 0.021-0.988l-0.002 0.047c-0.292-1.31-0.46-2.815-0.46-4.359 0-0.115 0.001-0.23 0.003-0.344v0.017c0.191-5.894 2.55-11.203 6.3-15.188l-0.011 0.012 160-160.031c4.339-4.302 10.314-6.96 16.909-6.96 13.266 0 24.020 10.754 24.020 24.020 0 6.611-2.671 12.598-6.992 16.941l-119.031 118.998h646.063c13.255 0 24 10.745 24 24s-10.745 24-24 24v0zM960 920c-13.253-0.004-23.996-10.747-24-24v0-896c0-13.255 10.745-24 24-24s24 10.745 24 24v0 896c-0.004 13.253-10.747 23.996-24 24v0z" />
<glyph unicode="&#xe926;" glyph-name="arrow-left-right" data-tags="arrow-left-right" d="M982.188 438.813l0.039 0.414c1.092 2.592 1.74 5.602 1.773 8.76v0.013c-0.156 1.185-0.373 2.23-0.659 3.247l0.039-0.16c-0.156 1.166-0.372 2.193-0.656 3.192l0.038-0.157c-1 4.143-2.969 7.732-5.659 10.645l0.015-0.016-0.117 0.219-160 160c-4.354 4.392-10.389 7.111-17.060 7.111-13.266 0-24.020-10.754-24.020-24.020 0-6.655 2.706-12.678 7.078-17.028l119.063-119.032h-780.125l119.032 119.031c4.205 4.319 6.798 10.224 6.798 16.736 0 13.255-10.745 24-24 24-6.511 0-12.417-2.593-16.741-6.803l-159.995-159.995c-2.148-2.153-3.89-4.713-5.1-7.554l-0.059-0.157-0.059-0.070-0.039-0.414c-1.091-2.592-1.74-5.602-1.773-8.76v-0.013c0.155-1.175 0.37-2.212 0.655-3.221l-0.038 0.158c0.154-1.175 0.372-2.213 0.659-3.222l-0.038 0.156c1.013-4.233 3.037-7.896 5.805-10.854l-0.012 0.013 160-160.031c4.339-4.302 10.314-6.96 16.909-6.96 13.266 0 24.020 10.754 24.020 24.020 0 6.611-2.671 12.598-6.992 16.941l-119.031 118.999h780.086l-119.023-119c-4.351-4.351-7.042-10.361-7.042-17 0-13.278 10.764-24.042 24.042-24.042 6.639 0 12.649 2.691 17 7.042l160.051 160.148c2.107 2.126 3.82 4.645 5.018 7.438l0.060 0.156z" />
<glyph unicode="&#xe927;" glyph-name="arrow-left-to-bracket" data-tags="arrow-left-to-bracket" d="M320 24h-232v848h232c13.255 0 24 10.745 24 24s-10.745 24-24 24v0h-256c-13.253-0.004-23.996-10.747-24-24v0-896c0.004-13.253 10.747-23.996 24-24h256c13.255 0 24 10.745 24 24s-10.745 24-24 24v0zM960 472h-646.063l119.032 119.031c4.205 4.319 6.798 10.224 6.798 16.736 0 13.255-10.745 24-24 24-6.511 0-12.417-2.593-16.741-6.803l-159.995-159.995c-0.797-0.797-0.531-2.008-1.191-2.88-1.32-1.687-3.18-2.859-4.028-4.902-0.402-1.607-0.632-3.452-0.632-5.351 0-0.331 0.007-0.66 0.021-0.988l-0.002 0.047c-0.292-1.31-0.46-2.815-0.46-4.359 0-0.115 0.001-0.23 0.003-0.344v0.017c0.191-5.894 2.55-11.203 6.3-15.188l-0.011 0.012 160-160.031c4.351-4.373 10.374-7.079 17.029-7.079 13.266 0 24.020 10.754 24.020 24.020 0 6.67-2.719 12.705-7.109 17.058l-119.034 119.001h646.063c13.255 0 24 10.745 24 24s-10.745 24-24 24v0z" />
<glyph unicode="&#xe928;" glyph-name="arrow-left-to-line" data-tags="arrow-left-to-line" d="M960 472h-646.063l119.032 119.031c4.205 4.319 6.798 10.224 6.798 16.736 0 13.255-10.745 24-24 24-6.511 0-12.417-2.593-16.741-6.803l-159.995-159.995c-0.797-0.797-0.531-2.008-1.191-2.88-1.32-1.687-3.18-2.859-4.028-4.902-0.402-1.607-0.632-3.452-0.632-5.351 0-0.331 0.007-0.66 0.021-0.988l-0.002 0.047c-0.292-1.31-0.46-2.815-0.46-4.359 0-0.115 0.001-0.23 0.003-0.344v0.017c0.191-5.894 2.55-11.203 6.3-15.188l-0.011 0.012 160-160.031c4.351-4.373 10.374-7.079 17.029-7.079 13.266 0 24.020 10.754 24.020 24.020 0 6.67-2.719 12.705-7.109 17.058l-119.034 119.001h646.063c13.255 0 24 10.745 24 24s-10.745 24-24 24v0zM64 920c-13.253-0.004-23.996-10.747-24-24v0-896c0-13.255 10.745-24 24-24s24 10.745 24 24v0 896c-0.004 13.253-10.747 23.996-24 24v0z" />
<glyph unicode="&#xe929;" glyph-name="arrow-right" data-tags="arrow-right" d="M982.801 445.12c0.287 1.297 0.451 2.787 0.451 4.315 0 0.121-0.001 0.242-0.003 0.363v-0.018c-0.193 5.891-2.535 11.2-6.263 15.202l0.013-0.014-320 320c-4.342 4.32-10.329 6.991-16.94 6.991-13.266 0-24.020-10.754-24.020-24.020 0-6.596 2.658-12.57 6.962-16.911l279.062-279.028h-838.063c-13.255 0-24-10.745-24-24s10.745-24 24-24v0h838.028l-279.027-279c-4.351-4.351-7.042-10.361-7.042-17 0-13.278 10.764-24.042 24.042-24.042 6.639 0 12.649 2.691 17 7.042l320 320.031c0.812 0.817 0.547 2.063 1.216 2.961 1.293 1.664 3.129 2.812 3.968 4.82 0.405 1.605 0.637 3.448 0.637 5.346 0 0.338-0.007 0.675-0.022 1.009l0.002-0.048z" />
<glyph unicode="&#xe92a;" glyph-name="arrow-right-arrow-left" data-tags="arrow-right-arrow-left" d="M64 616h838.031l-119.031-119.031c-4.302-4.339-6.96-10.314-6.96-16.909 0-13.266 10.754-24.020 24.020-24.020 6.611 0 12.598 2.671 16.941 6.992l159.999 159.999c0.812 0.817 0.547 2.063 1.216 2.961 1.293 1.664 3.129 2.812 3.968 4.82 0.403 1.602 0.634 3.441 0.634 5.334 0 0.343-0.008 0.683-0.023 1.022l0.002-0.048c0.287 1.297 0.451 2.787 0.451 4.315 0 0.121-0.001 0.242-0.003 0.363v-0.018c-0.193 5.891-2.535 11.2-6.263 15.202l0.013-0.014-160 160c-4.342 4.32-10.329 6.991-16.94 6.991-13.266 0-24.020-10.754-24.020-24.020 0-6.596 2.658-12.57 6.962-16.911l119.065-119.029h-838.063c-13.255 0-24-10.745-24-24s10.745-24 24-24v0zM960 280h-838.039l119.008 119.031c4.205 4.319 6.798 10.224 6.798 16.736 0 13.255-10.745 24-24 24-6.511 0-12.417-2.593-16.741-6.803l-159.995-159.964c-0.812-0.812-0.547-2.048-1.216-2.944-1.309-1.676-3.16-2.847-4-4.867-0.402-1.606-0.632-3.449-0.632-5.346 0-0.33 0.007-0.659 0.021-0.986l-0.002 0.047c-0.292-1.307-0.46-2.808-0.46-4.348 0-0.124 0.001-0.247 0.003-0.37v0.018c0.187-5.904 2.546-11.223 6.3-15.215l-0.011 0.012 160-160c4.339-4.302 10.314-6.96 16.909-6.96 13.266 0 24.020 10.754 24.020 24.020 0 6.611-2.671 12.598-6.992 16.941l-119.033 118.998h838.063c13.255 0 24 10.745 24 24s-10.745 24-24 24v0z" />
<glyph unicode="&#xe92b;" glyph-name="arrow-right-from-bracket" data-tags="arrow-right-from-bracket" d="M320 24h-232v848h232c13.255 0 24 10.745 24 24s-10.745 24-24 24v0h-256c-13.253-0.004-23.996-10.747-24-24v0-896c0.004-13.253 10.747-23.996 24-24h256c13.255 0 24 10.745 24 24s-10.745 24-24 24v0zM982.801 450.88c0.013 0.291 0.021 0.631 0.021 0.974 0 1.893-0.231 3.732-0.667 5.491l0.033-0.156c-0.84 2.008-2.676 3.156-3.968 4.82-0.672 0.896-0.406 2.145-1.216 2.961l-160 160c-4.354 4.392-10.389 7.111-17.060 7.111-13.266 0-24.020-10.754-24.020-24.020 0-6.655 2.706-12.678 7.078-17.028l119.029-119.033h-646.031c-13.255 0-24-10.745-24-24s10.745-24 24-24v0h646.063l-119.062-119c-4.351-4.351-7.042-10.361-7.042-17 0-13.278 10.764-24.042 24.042-24.042 6.639 0 12.649 2.691 17 7.042l160 160.031c3.715 3.987 6.056 9.297 6.249 15.15l0.001 0.038c0.002 0.101 0.003 0.221 0.003 0.341 0 1.53-0.165 3.022-0.477 4.458l0.025-0.138z" />
<glyph unicode="&#xe92c;" glyph-name="arrow-right-from-line" data-tags="arrow-right-from-line" d="M982.801 445.12c0.287 1.297 0.451 2.787 0.451 4.315 0 0.121-0.001 0.242-0.003 0.363v-0.018c-0.193 5.891-2.535 11.2-6.263 15.202l0.013-0.014-160 160c-4.354 4.392-10.389 7.111-17.060 7.111-13.266 0-24.020-10.754-24.020-24.020 0-6.655 2.706-12.678 7.078-17.028l119.065-119.031h-646.063c-13.255 0-24-10.745-24-24s10.745-24 24-24v0h646.024l-119.023-119c-4.351-4.351-7.042-10.361-7.042-17 0-13.278 10.764-24.042 24.042-24.042 6.639 0 12.649 2.691 17 7.042l160 160.031c0.812 0.817 0.547 2.063 1.216 2.961 1.293 1.664 3.129 2.812 3.968 4.82 0.405 1.605 0.637 3.448 0.637 5.346 0 0.338-0.007 0.675-0.022 1.009l0.002-0.048zM64 920c-13.253-0.004-23.996-10.747-24-24v0-896c0-13.255 10.745-24 24-24s24 10.745 24 24v0 896c-0.004 13.253-10.747 23.996-24 24v0z" />
<glyph unicode="&#xe92d;" glyph-name="arrow-right-to-bracket" data-tags="arrow-right-to-bracket" d="M960 920h-256c-13.255 0-24-10.745-24-24s10.745-24 24-24v0h232v-848h-232c-13.255 0-24-10.745-24-24s10.745-24 24-24v0h256c13.253 0.004 23.996 10.747 24 24v0 896c-0.004 13.253-10.747 23.996-24 24v0zM786.219 433.992c1.293 1.664 3.129 2.812 3.968 4.82 0.403 1.602 0.634 3.441 0.634 5.334 0 0.343-0.008 0.683-0.023 1.022l0.002-0.048c0.287 1.297 0.451 2.787 0.451 4.315 0 0.121-0.001 0.242-0.003 0.363v-0.018c-0.193 5.891-2.535 11.2-6.263 15.202l0.013-0.014-160 160c-4.354 4.392-10.389 7.111-17.060 7.111-13.266 0-24.020-10.754-24.020-24.020 0-6.655 2.706-12.678 7.078-17.028l119.065-119.032h-646.063c-13.255 0-24-10.745-24-24s10.745-24 24-24v0h646.024l-119.023-119c-4.351-4.351-7.042-10.361-7.042-17 0-13.278 10.764-24.042 24.042-24.042 6.639 0 12.649 2.691 17 7.042l160 160.031c0.812 0.817 0.547 2.063 1.219 2.961z" />
<glyph unicode="&#xe92e;" glyph-name="arrow-right-to-line" data-tags="arrow-right-to-line" d="M791.25 449.781c-0.193 5.891-2.535 11.2-6.263 15.202l0.013-0.014-160 160c-4.354 4.392-10.389 7.111-17.060 7.111-13.266 0-24.020-10.754-24.020-24.020 0-6.655 2.706-12.678 7.078-17.028l119.063-119.032h-646.063c-13.255 0-24-10.745-24-24s10.745-24 24-24v0h646.024l-119.023-119c-4.351-4.351-7.042-10.361-7.042-17 0-13.278 10.764-24.042 24.042-24.042 6.639 0 12.649 2.691 17 7.042l160 160.031c0.812 0.817 0.547 2.063 1.216 2.961 1.293 1.664 3.129 2.812 3.968 4.82 0.403 1.602 0.634 3.441 0.634 5.334 0 0.343-0.008 0.683-0.023 1.022l0.002-0.048c0.289 1.303 0.455 2.799 0.455 4.334 0 0.114-0.001 0.229-0.003 0.343v-0.017zM960 920c-13.253-0.004-23.996-10.747-24-24v0-896c0-13.255 10.745-24 24-24s24 10.745 24 24v0 896c-0.004 13.253-10.747 23.996-24 24v0z" />
<glyph unicode="&#xe92f;" glyph-name="arrow-rotate-left" data-tags="arrow-rotate-left" d="M512 920c-0.421 0.001-0.918 0.002-1.416 0.002-143.693 0-272.244-64.831-357.998-166.839l-0.585-0.715v152.614c0 13.255-10.745 24-24 24s-24-10.745-24-24v0-226.278c0.14-0.976 0.315-1.815 0.535-2.636l-0.035 0.155c0.241-3.367 1.271-6.449 2.902-9.124l-0.051 0.089c0.793-1.467 1.656-2.733 2.634-3.899l-0.029 0.036c1.083-1.217 2.266-2.301 3.551-3.256l0.062-0.044c0.628-0.649 1.287-1.255 1.982-1.819l0.041-0.032c0.484-0.293 1.036-0.293 1.532-0.547 1.332-0.66 2.888-1.232 4.511-1.634l0.161-0.034c1.277-0.409 2.779-0.725 4.326-0.887l0.1-0.009c0.617-0.047 1.148-0.359 1.777-0.359h226.281c13.255 0 24 10.745 24 24s-10.745 24-24 24v0h-180.582c77.407 103.176 199.457 169.22 336.933 169.22 0.481 0 0.962-0.001 1.442-0.002h-0.075c234.131-0.050 423.913-189.862 423.913-424 0-234.169-189.831-424-424-424-168.152 0-313.441 97.884-381.997 239.781l-1.103 2.532c-3.965 8.126-12.166 13.625-21.651 13.625-13.263 0-24.015-10.752-24.015-24.015 0-3.717 0.845-7.238 2.353-10.379l-0.062 0.144c77.551-160.8 239.307-269.78 426.516-269.78 260.704 0 472.046 211.342 472.046 472.046 0 260.688-211.316 472.020-471.997 472.046h-0.002z" />
<glyph unicode="&#xe930;" glyph-name="arrow-rotate-right" data-tags="arrow-rotate-right" d="M970.312 277.688c-2.995 1.428-6.51 2.262-10.219 2.262-9.524 0-17.764-5.499-21.718-13.496l-0.063-0.142c-69.655-144.466-214.97-242.38-383.154-242.38-234.187 0-424.034 189.846-424.034 424.034 0 234.176 189.827 424.015 423.999 424.034h0.002c0.4 0.001 0.874 0.002 1.348 0.002 137.472 0 259.519-66.044 336.142-168.133l0.779-1.085h-180.582c-13.255 0-24-10.745-24-24s10.745-24 24-24v0h226.312c0.613 0 1.129 0.305 1.734 0.351 3.411 0.456 6.503 1.365 9.374 2.674l-0.206-0.084c0.476 0.246 1.007 0.246 1.472 0.527 0.701 0.572 1.33 1.149 1.925 1.76l0.005 0.005c1.42 1.042 2.663 2.182 3.771 3.444l0.022 0.026c0.876 1.054 1.681 2.232 2.373 3.481l0.059 0.117c1.591 2.55 2.639 5.593 2.909 8.857l0.005 0.073c0.214 0.754 0.409 1.69 0.545 2.645l0.014 0.121v226.281c0 13.255-10.745 24-24 24s-24-10.745-24-24v0-152.633c-86.327 102.733-214.875 167.573-358.567 167.573-0.504 0-1.008-0.001-1.512-0.002h0.078c-260.628-0.067-471.883-211.363-471.883-472 0-260.678 211.322-472 472-472 187.166 0 348.887 108.94 425.215 266.87l1.228 2.818c1.462 3.014 2.317 6.556 2.317 10.298 0 9.516-5.527 17.741-13.547 21.639l-0.143 0.063z" />
<glyph unicode="&#xe931;" glyph-name="arrows-maximize" data-tags="arrows-maximize" d="M960 552c13.253 0.004 23.996 10.747 24 24v0 320c-0.033 3.171-0.682 6.181-1.832 8.93l0.058-0.157-0.039 0.414-0.059 0.070c-1.258 2.949-2.971 5.469-5.080 7.596l0.002-0.002-0.051 0.117-0.083 0.035c-0.76 0.592-1.617 1.175-2.51 1.703l-0.114 0.062c-0.696 0.547-1.478 1.082-2.295 1.566l-0.101 0.055c-3.375 2.167-7.47 3.497-11.869 3.609l-0.030 0.001h-320c-13.255 0-24-10.745-24-24s10.745-24 24-24v0h262.031l-390.031-390.031-390.059 390.031h262.059c13.255 0 24 10.745 24 24s-10.745 24-24 24v0h-320c-3.169-0.032-6.178-0.679-8.925-1.828l0.157 0.058-0.419-0.043-0.070-0.059c-3.863-1.778-7.059-4.43-9.433-7.715l-0.048-0.069c-0.559-0.715-1.108-1.519-1.606-2.358l-0.058-0.106c-2.16-3.371-3.485-7.459-3.597-11.849l-0.001-0.030v-320c0-13.255 10.745-24 24-24s24 10.745 24 24v0 262.059l390.031-390.059-390.031-390.031v262.031c0 13.255-10.745 24-24 24s-24-10.745-24-24v0-320c0.034-3.171 0.682-6.181 1.832-8.93l-0.058 0.157 0.039-0.414 0.059-0.070c1.265-2.976 2.994-5.519 5.126-7.661l-0.001 0.001 0.035-0.083 0.122-0.051c0.73-0.568 1.554-1.13 2.412-1.639l0.111-0.061c0.701-0.548 1.491-1.088 2.314-1.576l0.104-0.057c3.377-2.171 7.475-3.504 11.877-3.617l0.030-0.001h320c13.255 0 24 10.745 24 24s-10.745 24-24 24v0h-262.031l390.031 390.031 390.004-390.031h-262.004c-13.255 0-24-10.745-24-24s10.745-24 24-24v0h320c3.315 0.017 6.47 0.681 9.352 1.873l-0.165-0.060 0.070 0.059c2.928 1.254 5.43 2.956 7.545 5.048l-0.002-0.002 0.2 0.082 0.082 0.2c0.567 0.73 1.128 1.554 1.638 2.412l0.061 0.111c0.533 0.682 1.058 1.449 1.534 2.25l0.056 0.102c2.179 3.381 3.516 7.486 3.628 11.896l0.001 0.030v320c0 13.255-10.745 24-24 24s-24-10.745-24-24v0-262.004l-390.031 390.004 390.031 390.031v-262.031c0.004-13.253 10.747-23.996 24-24v0z" />
<glyph unicode="&#xe932;" glyph-name="arrows-minimize" data-tags="arrows-minimize" d="M448 408h-320c-13.255 0-24-10.745-24-24s10.745-24 24-24v0h262.059l-343.028-343c-4.32-4.342-6.991-10.329-6.991-16.94 0-13.266 10.754-24.020 24.020-24.020 6.596 0 12.57 2.658 16.911 6.962l343.029 343.030v-262.031c0-13.255 10.745-24 24-24s24 10.745 24 24v0 320c-0.004 13.253-10.747 23.996-24 24v0zM448 856c-13.253-0.004-23.996-10.747-24-24v0-262.063l-343.031 343.032c-4.319 4.205-10.224 6.798-16.736 6.798-13.255 0-24-10.745-24-24 0-6.511 2.593-12.417 6.803-16.741l343.027-343.026h-262.063c-13.255 0-24-10.745-24-24s10.745-24 24-24v0h320c13.253 0.004 23.996 10.747 24 24v0 320c-0.004 13.253-10.747 23.996-24 24v0zM576 488h320c13.255 0 24 10.745 24 24s-10.745 24-24 24v0h-262.031l343.032 343.031c4.302 4.339 6.96 10.314 6.96 16.909 0 13.266-10.754 24.020-24.020 24.020-6.611 0-12.598-2.671-16.941-6.992l-342.999-343.027v262.059c0 13.255-10.745 24-24 24s-24-10.745-24-24v0-320c0.004-13.253 10.747-23.996 24-24v0zM633.972 360h262.028c13.255 0 24 10.745 24 24s-10.745 24-24 24v0l-320.015-0.004c-13.247-0.009-23.982-10.748-23.985-23.996v0-320c0-13.255 10.745-24 24-24s24 10.745 24 24v0 262.028l343-343.028c4.351-4.351 10.361-7.042 17-7.042 13.278 0 24.042 10.764 24.042 24.042 0 6.639-2.691 12.649-7.042 17v0z" />
<glyph unicode="&#xe933;" glyph-name="arrows-repeat" data-tags="arrows-repeat" d="M320 712h518.031l-119.031-119.031c-4.302-4.339-6.96-10.314-6.96-16.909 0-13.266 10.754-24.020 24.020-24.020 6.611 0 12.598 2.671 16.941 6.992l159.999 159.999c0.812 0.817 0.547 2.063 1.216 2.961 1.293 1.664 3.129 2.812 3.968 4.82 0.403 1.602 0.634 3.441 0.634 5.334 0 0.343-0.008 0.683-0.023 1.022l0.002-0.048c0.287 1.297 0.451 2.787 0.451 4.315 0 0.121-0.001 0.242-0.003 0.363v-0.018c-0.193 5.891-2.535 11.2-6.263 15.202l0.013-0.014-160 160c-4.342 4.32-10.329 6.991-16.94 6.991-13.266 0-24.020-10.754-24.020-24.020 0-6.596 2.658-12.57 6.962-16.911l119.065-119.029h-518.063c-6.994 0.677-15.121 1.063-23.337 1.063-139.048 0-252.282-110.519-256.652-248.505l-0.010-0.402c0-0.044 0-0.097 0-0.15 0-13.202 10.656-23.914 23.836-24.006h0.165c13.197 0.007 23.904 10.659 24 23.835v0.009c0.064 8.156 3.904 200.028 232 200.156zM960.25 407.969h-0.25c-13.155-0.030-23.828-10.615-24-23.734v-0.016c-0.128-8.156-5.125-200.031-232-200.219h-518.031l119 119c4.32 4.342 6.991 10.329 6.991 16.94 0 13.266-10.754 24.020-24.020 24.020-6.596 0-12.57-2.658-16.911-6.962l-159.998-159.998c-0.812-0.812-0.547-2.048-1.216-2.944-1.309-1.676-3.16-2.847-4-4.867-0.402-1.606-0.632-3.449-0.632-5.346 0-0.33 0.007-0.659 0.021-0.986l-0.002 0.047c-0.292-1.307-0.46-2.808-0.46-4.348 0-0.124 0.001-0.247 0.003-0.37v0.018c0.187-5.904 2.546-11.223 6.3-15.215l-0.011 0.012 160-160c4.351-4.373 10.374-7.079 17.029-7.079 13.266 0 24.020 10.754 24.020 24.020 0 6.67-2.719 12.705-7.109 17.058l-119.036 119.001h518.063c7.004-0.679 15.141-1.066 23.369-1.066 139.052 0 252.286 110.54 256.621 248.539l0.010 0.399c0 0.031 0 0.068 0 0.104 0 13.166-10.604 23.855-23.737 23.992h-0.013z" />
<glyph unicode="&#xe934;" glyph-name="arrows-repeat-1" data-tags="arrows-repeat-1" d="M320 712h518.031l-119.031-119.031c-4.302-4.339-6.96-10.314-6.96-16.909 0-13.266 10.754-24.020 24.020-24.020 6.611 0 12.598 2.671 16.941 6.992l159.999 159.999c0.812 0.817 0.547 2.063 1.216 2.961 1.293 1.664 3.129 2.812 3.968 4.82 0.403 1.602 0.634 3.441 0.634 5.334 0 0.343-0.008 0.683-0.023 1.022l0.002-0.048c0.287 1.297 0.451 2.787 0.451 4.315 0 0.121-0.001 0.242-0.003 0.363v-0.018c-0.193 5.891-2.535 11.2-6.263 15.202l0.013-0.014-160 160c-4.342 4.32-10.329 6.991-16.94 6.991-13.266 0-24.020-10.754-24.020-24.020 0-6.596 2.658-12.57 6.962-16.911l119.065-119.029h-518.063c-6.994 0.677-15.121 1.063-23.337 1.063-139.048 0-252.282-110.519-256.652-248.505l-0.010-0.402c0-0.044 0-0.097 0-0.15 0-13.202 10.656-23.914 23.836-24.006h0.165c13.197 0.007 23.904 10.659 24 23.835v0.009c0.064 8.156 3.904 200.028 232 200.156zM960.25 407.969h-0.25c-13.155-0.030-23.828-10.615-24-23.734v-0.016c-0.128-8.156-5.125-200.031-232-200.219h-518.031l119 119c4.32 4.342 6.991 10.329 6.991 16.94 0 13.266-10.754 24.020-24.020 24.020-6.596 0-12.57-2.658-16.911-6.962l-159.998-159.998c-0.812-0.812-0.547-2.048-1.216-2.944-1.309-1.676-3.16-2.847-4-4.867-0.402-1.606-0.632-3.449-0.632-5.346 0-0.33 0.007-0.659 0.021-0.986l-0.002 0.047c-0.292-1.307-0.46-2.808-0.46-4.348 0-0.124 0.001-0.247 0.003-0.37v0.018c0.187-5.904 2.546-11.223 6.3-15.215l-0.011 0.012 160-160c4.351-4.373 10.374-7.079 17.029-7.079 13.266 0 24.020 10.754 24.020 24.020 0 6.67-2.719 12.705-7.109 17.058l-119.036 119.001h518.063c7.004-0.679 15.141-1.066 23.369-1.066 139.052 0 252.286 110.54 256.621 248.539l0.010 0.399c0 0.031 0 0.068 0 0.104 0 13.166-10.604 23.855-23.737 23.992h-0.013zM540.219 275.313h12.5c8.834 0.006 15.994 7.166 16 15.999v313.376c0 0.003 0 0.006 0 0.010 0 8.831-7.159 15.99-15.99 15.99-0.003 0-0.007 0-0.010 0h-10.28c-0.016 0-0.035 0-0.054 0-2.851 0-5.526-0.754-7.836-2.072l0.078 0.041-71.156-39.872c-4.919-2.797-8.183-8.001-8.188-13.968v-14.314c0-0.004 0-0.009 0-0.013 0-8.834 7.161-15.996 15.996-15.996 2.872 0 5.566 0.757 7.896 2.082l-0.079-0.041 45.125 25.216v-270.437c0.006-8.834 7.166-15.994 15.999-16h0.001z" />
<glyph unicode="&#xe935;" glyph-name="arrows-rotate" data-tags="arrows-rotate" d="M958.375 515.125c-1.463 11.83-11.452 20.898-23.56 20.898-1.192 0-2.363-0.088-3.507-0.257l0.13 0.016c-11.85-1.615-20.884-11.67-20.884-23.835 0-1.083 0.072-2.149 0.21-3.194l-0.013 0.122c2.348-16.876 3.688-36.375 3.688-56.186 0-0.056 0-0.111 0-0.167v0.009c-0.273-234.053-189.945-423.714-423.976-423.969h-0.024c-0.411-0.001-0.897-0.002-1.383-0.002-137.467 0-259.512 66.031-336.148 168.105l-0.779 1.084h180.591c13.255 0 24 10.745 24 24s-10.745 24-24 24v0h-226.281c-0.637 0-1.168-0.316-1.792-0.363-1.61-0.171-3.074-0.478-4.48-0.915l0.164 0.044c-1.849-0.448-3.465-1.047-4.987-1.808l0.135 0.061c-0.468-0.242-0.988-0.242-1.445-0.519-0.694-0.564-1.317-1.134-1.906-1.738l-0.005-0.005c-1.405-1.031-2.636-2.158-3.736-3.404l-0.022-0.025c-1.777-2.214-3.258-4.767-4.325-7.527l-0.066-0.196c-0.501-1.493-0.867-3.232-1.028-5.031l-0.006-0.089c-0.186-0.668-0.361-1.509-0.486-2.366l-0.014-0.118v-226.312c0-13.255 10.745-24 24-24s24 10.745 24 24v0 152.628c86.344-102.695 214.882-167.506 358.558-167.506 0.507 0 1.014 0.001 1.52 0.002h-0.079c260.544 0.309 471.674 211.428 472 471.938v0.031c-0.002 22.071-1.479 43.796-4.337 65.082l0.273-2.488zM99.875 355.437c1.124 0 2.231 0.068 3.318 0.2l-0.131-0.013c11.826 1.617 20.84 11.653 20.84 23.794 0 1.131-0.078 2.243-0.229 3.332l0.014-0.126c-2.365 16.913-3.717 36.454-3.719 56.31v0.003c0.283 234.055 189.945 423.717 423.973 424h0.027c0.408 0.001 0.89 0.002 1.372 0.002 137.475 0 259.525-66.043 336.153-168.133l0.779-1.085h-180.585c-13.255 0-24-10.745-24-24s10.745-24 24-24v0h226.312c0.605 0 1.109 0.301 1.703 0.344 3.423 0.458 6.525 1.369 9.407 2.682l-0.207-0.085c0.477 0.246 1.008 0.246 1.472 0.527 0.701 0.572 1.33 1.15 1.925 1.761l0.005 0.005c1.419 1.043 2.662 2.184 3.771 3.446l0.023 0.026c0.876 1.054 1.681 2.232 2.373 3.481l0.059 0.117c1.591 2.55 2.639 5.593 2.909 8.857l0.005 0.073c0.214 0.754 0.409 1.69 0.545 2.645l0.014 0.121v226.278c0 13.255-10.745 24-24 24s-24-10.745-24-24v0-152.664c-86.347 102.752-214.922 167.604-358.644 167.604-0.489 0-0.977-0.001-1.465-0.002h0.076c-260.7-0.1-472-211.462-472-472.176 0-22.043 1.511-43.734 4.434-64.974l-0.277 2.462c1.613-11.807 11.63-20.807 23.75-20.813h0.001z" />
<glyph unicode="&#xe936;" glyph-name="arrows-shuffle" data-tags="arrows-shuffle" d="M849 369c-4.351 4.351-10.361 7.042-17 7.042-13.278 0-24.042-10.764-24.042-24.042 0-6.639 2.691-12.649 7.042-17l87-87h-260.75l-59 85.625c-4.395 6.252-11.576 10.288-19.701 10.288-13.259 0-24.007-10.748-24.007-24.007 0-5.054 1.562-9.743 4.229-13.611l-0.053 0.081 66.156-96c4.376-6.301 11.576-10.375 19.727-10.375 0.008 0 0.016 0 0.024 0h273.373l-87-87c-4.351-4.351-7.042-10.361-7.042-17 0-13.278 10.764-24.042 24.042-24.042 6.639 0 12.649 2.691 17 7.042l128 128c4.317 4.366 6.984 10.372 6.984 17s-2.667 12.634-6.986 17.002l0.002-0.002zM64 648.031l243.375-0.031 59-85.625c4.387-6.299 11.593-10.369 19.75-10.369 13.251 0 23.994 10.742 23.994 23.994 0 5.095-1.588 9.818-4.295 13.703l0.052-0.078-66.125 96c-4.375 6.301-11.575 10.375-19.726 10.375-0.008 0-0.017 0-0.025 0l-255.999 0.031c-13.255 0-24-10.745-24-24s10.745-24 24-24v0zM902.031 648l-87.031-87.031c-4.302-4.339-6.96-10.314-6.96-16.909 0-13.266 10.754-24.020 24.020-24.020 6.611 0 12.598 2.671 16.941 6.992l128.050 128.116c4.295 4.321 6.949 10.276 6.949 16.852s-2.654 12.531-6.95 16.853l0.001-0.001-0.051 0.117-128 128c-4.342 4.32-10.329 6.991-16.94 6.991-13.266 0-24.020-10.754-24.020-24.020 0-6.596 2.658-12.57 6.962-16.911l87.029-87.029h-262.031c-8.015-0.002-15.108-3.942-19.451-9.991l-0.049-0.072-312.844-437.937h-243.656c-13.255 0-24-10.745-24-24s10.745-24 24-24v0h256c8.024 0.001 15.127 3.941 19.483 9.992l0.049 0.071 312.844 437.937z" />
<glyph unicode="&#xe937;" glyph-name="arrows-up-left-bottom-right" data-tags="arrows-up-left-bottom-right" d="M852.813 357.5c0 13.255-10.745 24-24 24s-24-10.745-24-24v0-168.32l-551.652 551.601h168.34c13.255 0 24 10.745 24 24s-10.745 24-24 24v0h-226.282c-3.171-0.034-6.181-0.682-8.93-1.832l0.157 0.058-0.414-0.039-0.070-0.059c-3.863-1.778-7.059-4.43-9.433-7.715l-0.048-0.069c-0.559-0.715-1.109-1.52-1.606-2.359l-0.058-0.106c-2.16-3.37-3.485-7.459-3.597-11.849l-0.001-0.030v-226.282c0-13.255 10.745-24 24-24s24 10.745 24 24v0 168.34l551.597-551.652h-168.32c-13.255 0-24-10.745-24-24s10.745-24 24-24v0h226.317c3.315 0.017 6.47 0.681 9.352 1.873l-0.165-0.060 0.070 0.059c2.928 1.254 5.43 2.956 7.545 5.049l-0.002-0.002 0.199 0.082 0.082 0.199c0.567 0.73 1.129 1.554 1.638 2.412l0.061 0.111c0.533 0.682 1.058 1.449 1.534 2.249l0.056 0.102c2.179 3.381 3.516 7.486 3.629 11.896l0.001 0.030z" />
<glyph unicode="&#xe938;" glyph-name="arrows-up-right-bottom-left" data-tags="arrows-up-right-bottom-left" d="M851.039 773.555l-0.039 0.414-0.059 0.070c-1.258 2.949-2.972 5.468-5.080 7.595l0.002-0.002-0.051 0.117-0.082 0.035c-0.76 0.593-1.617 1.176-2.511 1.704l-0.113 0.062c-0.696 0.546-1.479 1.082-2.297 1.566l-0.101 0.056c-3.375 2.167-7.47 3.497-11.868 3.609l-0.030 0.001h-226.31c-13.255 0-24-10.745-24-24s10.745-24 24-24v0h168.344l-551.625-551.625v168.344c0 13.255-10.745 24-24 24s-24-10.745-24-24v0-226.313c0.034-3.171 0.682-6.181 1.832-8.93l-0.058 0.157 0.039-0.414 0.059-0.070c1.265-2.976 2.995-5.519 5.126-7.661l-0.001 0.001 0.035-0.082 0.121-0.051c0.731-0.569 1.555-1.13 2.413-1.639l0.11-0.061c0.702-0.549 1.491-1.089 2.315-1.577l0.103-0.057c3.376-2.171 7.473-3.503 11.874-3.617l0.030-0.001h226.284c13.255 0 24 10.745 24 24s-10.745 24-24 24v0h-168.313l551.626 551.626v-168.313c0-13.255 10.745-24 24-24s24 10.745 24 24v0 226.282c-0.034 3.171-0.682 6.181-1.832 8.93l0.058-0.157z" />
<glyph unicode="&#xe939;" glyph-name="arrow-trend-down" data-tags="arrow-trend-down" d="M984 226.25c0 13.255-10.745 24-24 24s-24-10.745-24-24v0-165.625l-379.25 403.812c-4.402 4.662-10.625 7.563-17.525 7.563-2.776 0-5.442-0.47-7.924-1.334l0.169 0.051-217.377-74.375-228.187 509.469c-3.836 8.458-12.206 14.234-21.926 14.234-13.257 0-24.004-10.747-24.004-24.004 0-3.571 0.78-6.959 2.178-10.005l-0.061 0.149 237.156-529.437c3.821-8.433 12.165-14.194 21.855-14.194 2.806 0 5.499 0.483 8 1.371l-0.167-0.052 223.437 76.406 372.148-396.281h-170.774c-13.255 0-24-10.745-24-24s10.745-24 24-24v0h226.25c6.114 0.060 11.665 2.426 15.833 6.269l-0.016-0.015 0.621 0.246 0.113 0.25c4.195 4.075 6.889 9.675 7.185 15.903l0.002 0.054 0.152 0.754 0.109 0.539z" />
<glyph unicode="&#xe93a;" glyph-name="arrow-trend-up" data-tags="arrow-trend-up" d="M983.894 896.524l-0.15 0.73c-0.289 6.298-2.988 11.914-7.189 15.99l-0.006 0.006-0.111 0.25-0.576 0.219c-4.161 3.845-9.728 6.222-15.85 6.281h-226.262c-13.255 0-24-10.745-24-24s10.745-24 24-24v0h170.774l-372.148-396.281-223.437 76.437c-2.317 0.819-4.99 1.293-7.773 1.293-9.707 0-18.069-5.76-21.854-14.049l-0.061-0.15-237.156-529.437c-1.313-2.873-2.078-6.232-2.078-9.77 0-13.257 10.747-24.004 24.004-24.004 9.686 0 18.033 5.737 21.826 13.999l0.061 0.149 228.187 509.469 217.375-74.376c2.312-0.813 4.979-1.282 7.754-1.282 6.901 0 13.123 2.902 17.515 7.552l0.011 0.012 379.251 403.814v-165.656c0-13.255 10.745-24 24-24s24 10.745 24 24v0 226.281z" />
<glyph unicode="&#xe93b;" glyph-name="arrow-turn-down" data-tags="arrow-turn-down" d="M849 337c-4.353 4.345-10.363 7.032-17 7.032s-12.647-2.687-17-7.033v0l-279-279.062v838.063c-0.004 13.253-10.747 23.996-24 24h-320c-13.255 0-24-10.745-24-24s10.745-24 24-24v0h296v-814.031l-279.031 279.031c-4.339 4.302-10.314 6.96-16.909 6.96-13.266 0-24.020-10.754-24.020-24.020 0-6.611 2.671-12.598 6.992-16.941l319.999-319.999c0.82-0.82 2.067-0.547 2.969-1.222 1.664-1.293 2.808-3.125 4.813-3.965 2.717-1.131 5.872-1.796 9.181-1.812h0.007c6.621 0 12.618 2.674 16.97 7.001l320.030 319.999c4.317 4.366 6.984 10.372 6.984 17s-2.667 12.634-6.986 17.002l0.002-0.002z" />
<glyph unicode="&#xe93c;" glyph-name="arrow-turn-left" data-tags="arrow-turn-left" d="M960 792c-13.253-0.004-23.996-10.747-24-24v0-296h-814.063l279.032 279.031c4.205 4.319 6.798 10.224 6.798 16.736 0 13.255-10.745 24-24 24-6.511 0-12.417-2.593-16.741-6.803l-319.995-319.995c-0.797-0.797-0.531-2.008-1.191-2.88-1.32-1.687-3.18-2.859-4.028-4.902-0.402-1.607-0.632-3.452-0.632-5.351 0-0.331 0.007-0.66 0.021-0.988l-0.002 0.047c-0.292-1.31-0.46-2.815-0.46-4.359 0-0.115 0.001-0.23 0.003-0.344v0.017c0.191-5.894 2.55-11.203 6.3-15.188l-0.011 0.012 320-320.031c4.351-4.373 10.374-7.079 17.029-7.079 13.266 0 24.020 10.754 24.020 24.020 0 6.67-2.719 12.705-7.109 17.058l-279.034 279.001h838.063c13.253 0.004 23.996 10.747 24 24v0 320c-0.004 13.253-10.747 23.996-24 24v0z" />
<glyph unicode="&#xe93d;" glyph-name="arrow-turn-right" data-tags="arrow-turn-right" d="M982.801 445.12c0.287 1.297 0.451 2.787 0.451 4.315 0 0.121-0.001 0.242-0.003 0.363v-0.018c-0.193 5.891-2.535 11.2-6.263 15.202l0.013-0.014-320 320c-4.342 4.32-10.329 6.991-16.94 6.991-13.266 0-24.020-10.754-24.020-24.020 0-6.596 2.658-12.57 6.962-16.911l279.062-279.028h-838.063c-13.253-0.004-23.996-10.747-24-24v0-320c0-13.255 10.745-24 24-24s24 10.745 24 24v0 296h814.028l-279.027-279c-4.351-4.351-7.042-10.361-7.042-17 0-13.278 10.764-24.042 24.042-24.042 6.639 0 12.649 2.691 17 7.042l320 320.031c0.812 0.817 0.547 2.063 1.216 2.961 1.293 1.664 3.129 2.812 3.968 4.82 0.405 1.605 0.637 3.448 0.637 5.346 0 0.338-0.007 0.675-0.022 1.009l0.002-0.048z" />
<glyph unicode="&#xe93e;" glyph-name="arrow-turn-up" data-tags="arrow-turn-up" d="M832 24h-296v814.059l279-279.028c4.342-4.32 10.329-6.991 16.94-6.991 13.266 0 24.020 10.754 24.020 24.020 0 6.596-2.658 12.57-6.962 16.911l-320.029 319.998c-0.797 0.797-2.008 0.531-2.88 1.191-1.686 1.32-2.858 3.18-4.902 4.028-1.62 0.406-3.481 0.639-5.395 0.639-0.321 0-0.64-0.007-0.957-0.019l0.046 0.001c-1.302 0.293-2.798 0.46-4.332 0.46-0.113 0-0.226-0.001-0.338-0.003h0.017c-5.905-0.177-11.225-2.541-15.206-6.307l0.011 0.010-320-320c-4.205-4.319-6.798-10.224-6.798-16.736 0-13.255 10.745-24 24-24 6.511 0 12.417 2.593 16.741 6.803l279.026 279.027v-838.063c0.004-13.253 10.747-23.996 24-24h320c13.255 0 24 10.745 24 24s-10.745 24-24 24v0z" />
<glyph unicode="&#xe93f;" glyph-name="arrow-up" data-tags="arrow-up" d="M849 592.969l-320.031 320c-0.797 0.797-2.008 0.531-2.88 1.191-1.686 1.32-2.858 3.18-4.902 4.028-1.62 0.406-3.481 0.639-5.395 0.639-0.321 0-0.64-0.007-0.957-0.019l0.046 0.001c-1.302 0.293-2.798 0.46-4.332 0.46-0.113 0-0.226-0.001-0.338-0.003h0.017c-5.905-0.177-11.225-2.541-15.206-6.307l0.011 0.010-320-320c-4.205-4.319-6.798-10.224-6.798-16.736 0-13.255 10.745-24 24-24 6.511 0 12.417 2.593 16.741 6.803l279.026 279.027v-838.063c0-13.255 10.745-24 24-24s24 10.745 24 24v0 838.059l279-279.028c4.342-4.32 10.329-6.991 16.94-6.991 13.266 0 24.020 10.754 24.020 24.020 0 6.596-2.658 12.57-6.962 16.911l0.002-0.002z" />
<glyph unicode="&#xe940;" glyph-name="arrow-up-1-9" data-tags="arrow-up-1-9" d="M240.969 912.969c-0.797 0.797-2.008 0.531-2.88 1.191-1.686 1.32-2.858 3.18-4.902 4.028-1.615 0.407-3.469 0.64-5.377 0.64-0.329 0-0.656-0.007-0.982-0.021l0.047 0.002c-1.307 0.292-2.807 0.46-4.347 0.46-0.105 0-0.209-0.001-0.313-0.002h0.016c-5.904-0.187-11.222-2.55-15.211-6.308l0.012 0.011-160-160c-4.205-4.319-6.798-10.224-6.798-16.736 0-13.255 10.745-24 24-24 6.511 0 12.417 2.593 16.741 6.803l119.026 119.027v-838.063c0-13.255 10.745-24 24-24s24 10.745 24 24v0 838.063l119.031-119.032c4.319-4.205 10.224-6.798 16.736-6.798 13.255 0 24 10.745 24 24 0 6.511-2.593 12.417-6.803 16.741l0.005-0.005zM867.875 355.313c-24.561 24.635-58.531 39.877-96.061 39.877-1.056 0-2.108-0.012-3.158-0.036l0.156 0.003c-0.867 0.020-1.889 0.031-2.914 0.031-37.881 0-72.212-15.198-97.229-39.83l0.018 0.017c-25.13-24.414-40.723-58.527-40.723-96.283 0-1.087 0.013-2.171 0.039-3.252l-0.003 0.16c-0.027-1.019-0.042-2.218-0.042-3.421 0-37.394 14.867-71.315 39.012-96.175l-0.032 0.033c25.457-24.892 60.327-40.251 98.784-40.251 12.219 0 24.075 1.55 35.384 4.465l-0.981-0.214-86.938-115.126c-1.188-1.581-1.902-3.577-1.902-5.739 0-1.577 0.38-3.065 1.053-4.377l-0.025 0.054c1.561-3.206 4.794-5.376 8.535-5.376 0.010 0 0.020 0 0.030 0h19.623c3.137 0.010 5.92 1.52 7.67 3.85l0.018 0.025 128.5 172.125c19.255 24.645 30.987 55.985 31.312 90.053l0.001 0.074c0.027 0.998 0.042 2.174 0.042 3.352 0 37.551-15.365 71.514-40.151 95.945l-0.016 0.016zM768.813 360.689c0.895 0.029 1.947 0.045 3.003 0.045 27.953 0 53.214-11.526 71.289-30.086l0.021-0.022c18.497-19.337 29.882-45.61 29.882-74.541 0-28.74-11.235-54.856-29.553-74.196l0.046 0.049c-19.588-19.32-46.507-31.252-76.212-31.252-28.978 0-55.305 11.355-74.772 29.858l0.046-0.044c-18.309 18.471-29.623 43.902-29.623 71.976 0 1.239 0.022 2.473 0.066 3.701l-0.005-0.178c-0.025 0.829-0.039 1.804-0.039 2.782 0 28.156 11.647 53.592 30.387 71.753l0.026 0.025c18.479 18.636 44.090 30.173 72.397 30.173 1.069 0 2.135-0.016 3.196-0.049l-0.155 0.004zM719.625 817.532l75.5 42.188v-371.5c0.004-5.299 4.3-9.594 9.6-9.594 0.009 0 0.018 0 0.026 0h16.311c0.007 0 0.016 0 0.025 0 5.3 0 9.596 4.294 9.6 9.593v0 408.25c-0.003 5.299-4.3 9.594-9.6 9.594-0.009 0-0.018 0-0.026 0h-13.375c-0.006 0-0.014 0-0.022 0-1.714 0-3.322-0.452-4.712-1.244l0.047 0.025-92.75-51.904c-2.966-1.661-4.938-4.783-4.938-8.366 0-0.003 0-0.006 0-0.009v0-18.656c0.002-3.513 1.89-6.584 4.706-8.257l0.044-0.024c1.402-0.797 3.081-1.267 4.869-1.267 1.718 0 3.335 0.434 4.747 1.198l-0.053-0.026z" />
<glyph unicode="&#xe941;" glyph-name="arrow-up-9-1" data-tags="arrow-up-9-1" d="M240.969 912.969c-0.797 0.797-2.008 0.531-2.88 1.191-1.686 1.32-2.858 3.18-4.902 4.028-1.615 0.407-3.469 0.64-5.377 0.64-0.329 0-0.656-0.007-0.982-0.021l0.047 0.002c-1.307 0.292-2.807 0.46-4.347 0.46-0.105 0-0.209-0.001-0.313-0.002h0.016c-5.904-0.187-11.222-2.55-15.211-6.308l0.012 0.011-160-160c-4.205-4.319-6.798-10.224-6.798-16.736 0-13.255 10.745-24 24-24 6.511 0 12.417 2.593 16.741 6.803l119.026 119.027v-838.063c0-13.255 10.745-24 24-24s24 10.745 24 24v0 838.063l119.031-119.032c4.319-4.205 10.224-6.798 16.736-6.798 13.255 0 24 10.745 24 24 0 6.511-2.593 12.417-6.803 16.741l0.005-0.005zM867.875 866.813c-24.554 24.616-58.508 39.845-96.019 39.845-1.070 0-2.137-0.012-3.202-0.037l0.158 0.003c-0.907 0.021-1.976 0.034-3.047 0.034-37.84 0-72.129-15.201-97.093-39.83l0.015 0.015c-25.13-24.398-40.724-58.499-40.724-96.242 0-1.101 0.013-2.199 0.040-3.294l-0.003 0.162c-0.027-1.018-0.042-2.216-0.042-3.418 0-37.385 14.867-71.297 39.012-96.146l-0.032 0.033c24.159-24.855 57.909-40.276 95.262-40.276 1.38 0 2.756 0.021 4.126 0.063l-0.201-0.005c0.17-0.001 0.371-0.001 0.572-0.001 11.876 0 23.395 1.528 34.371 4.398l-0.943-0.209-86.938-115.125c-1.186-1.583-1.898-3.579-1.898-5.742 0-5.304 4.286-9.606 9.584-9.633h19.628c3.13 0.012 5.909 1.508 7.67 3.82l0.017 0.024 128.5 172.096c19.25 24.647 30.981 55.984 31.312 90.049l0.001 0.076c0.027 0.998 0.042 2.173 0.042 3.351 0 37.561-15.364 71.533-40.151 95.976l-0.016 0.015zM768.813 872.189c0.883 0.028 1.921 0.044 2.963 0.044 27.971 0 53.247-11.539 71.328-30.116l0.022-0.022c18.494-18.52 29.931-44.091 29.931-72.334 0-1.19-0.020-2.376-0.061-3.556l0.005 0.172c0.003-0.286 0.005-0.624 0.005-0.963 0-28.052-11.264-53.473-29.517-71.986l0.012 0.012c-19.579-19.339-46.5-31.283-76.211-31.283-28.984 0-55.313 11.368-74.772 29.888l0.045-0.042c-18.31 18.402-29.629 43.775-29.629 71.792 0 1.293 0.024 2.58 0.072 3.862l-0.005-0.185c-0.024 0.817-0.038 1.778-0.038 2.742 0 28.169 11.646 53.617 30.387 71.793l0.025 0.024c18.489 18.652 44.118 30.2 72.444 30.2 1.053 0 2.102-0.016 3.147-0.048l-0.153 0.004zM821.062 403.688h-13.44c-0.006 0-0.014 0-0.022 0-1.714 0-3.322-0.452-4.712-1.244l0.047 0.025-92.687-51.904c-2.965-1.652-4.938-4.768-4.938-8.345 0-0.011 0-0.021 0-0.032v0.002-18.624c0.033-5.299 4.337-9.582 9.641-9.582 1.715 0 3.325 0.448 4.72 1.232l-0.048-0.025 75.503 42.122v-371.5c0.002-5.315 4.31-9.623 9.625-9.625h16.313c5.315 0.002 9.623 4.31 9.625 9.625v0 408.282c-0.003 5.299-4.3 9.594-9.6 9.594-0.009 0-0.018 0-0.026 0h0.001z" />
<glyph unicode="&#xe942;" glyph-name="arrow-up-arrow-down" data-tags="arrow-up-arrow-down" d="M881 177c-4.353 4.345-10.363 7.032-17 7.032s-12.647-2.687-17-7.033v0l-119-119.062v838.063c0 13.255-10.745 24-24 24s-24-10.745-24-24v0-838.008l-119.031 119.007c-4.339 4.302-10.314 6.96-16.909 6.96-13.266 0-24.020-10.754-24.020-24.020 0-6.611 2.671-12.598 6.992-16.941l159.968-159.999c0.836-0.836 2.112-0.562 3.035-1.25 1.652-1.28 2.793-3.105 4.778-3.937 2.717-1.131 5.872-1.796 9.181-1.812h0.007c6.63 0.006 12.635 2.678 17.002 7.002l159.998 159.998c4.317 4.366 6.984 10.372 6.984 17s-2.667 12.634-6.986 17.002l0.002-0.002zM336.969 912.969c-0.797 0.797-2.008 0.531-2.88 1.191-1.686 1.32-2.858 3.18-4.902 4.028-1.619 0.406-3.478 0.639-5.391 0.639-0.322 0-0.643-0.007-0.962-0.020l0.046 0.001c-1.302 0.293-2.798 0.46-4.332 0.46-0.113 0-0.226-0.001-0.338-0.003h0.017c-5.906-0.171-11.227-2.537-15.206-6.307l-159.99-159.99c-4.205-4.319-6.798-10.224-6.798-16.736 0-13.255 10.745-24 24-24 6.511 0 12.417 2.593 16.741 6.803l119.026 119.027v-838.063c0-13.255 10.745-24 24-24s24 10.745 24 24v0 838.063l119.031-119.032c4.319-4.205 10.224-6.798 16.736-6.798 13.255 0 24 10.745 24 24 0 6.511-2.593 12.417-6.803 16.741l0.005-0.005z" />
<glyph unicode="&#xe943;" glyph-name="arrow-up-a-z" data-tags="arrow-up-a-z" d="M240.969 912.969c-0.797 0.797-2.008 0.531-2.88 1.191-1.686 1.32-2.858 3.18-4.902 4.028-1.615 0.407-3.469 0.64-5.377 0.64-0.329 0-0.656-0.007-0.982-0.021l0.047 0.002c-1.307 0.292-2.807 0.46-4.347 0.46-0.105 0-0.209-0.001-0.313-0.002h0.016c-5.904-0.187-11.222-2.55-15.211-6.308l0.012 0.011-160-160c-4.205-4.319-6.798-10.224-6.798-16.736 0-13.255 10.745-24 24-24 6.511 0 12.417 2.593 16.741 6.803l119.026 119.027v-838.063c0-13.255 10.745-24 24-24s24 10.745 24 24v0 838.063l119.031-119.032c4.319-4.205 10.224-6.798 16.736-6.798 13.255 0 24 10.745 24 24 0 6.511-2.593 12.417-6.803 16.741l0.005-0.005zM753.812 900.096c-1.566 3.275-4.854 5.498-8.66 5.498-0.010 0-0.019 0-0.029 0h-18.687c-0.008 0-0.018 0-0.027 0-3.806 0-7.094-2.222-8.635-5.44l-0.025-0.058-180.468-384c-0.577-1.197-0.913-2.603-0.913-4.087 0-5.302 4.298-9.6 9.6-9.6 0 0 0.001 0 0.001 0h17c0.002 0 0.004 0 0.005 0 3.821 0 7.119 2.237 8.657 5.473l0.025 0.058 42.969 91.563h241.812l43.437-91.625c1.598-3.255 4.884-5.458 8.686-5.469h17.001c0.014 0 0.031 0 0.048 0 5.286 0 9.571 4.285 9.571 9.571 0 1.496-0.343 2.912-0.956 4.174l0.025-0.057zM630.75 634.594l105 222.406 104.438-222.406zM882.688 393.469h-285.063c-0.007 0-0.016 0-0.025 0-5.3 0-9.596-4.294-9.6-9.593v0-15.875c0.002-5.315 4.31-9.623 9.625-9.625h243.688l-260.125-339.313c-1.236-1.591-1.986-3.613-2-5.809v-13.128c0.003-5.315 4.311-9.622 9.625-9.625h293.312c5.315 0.003 9.622 4.31 9.625 9.625v0 15.875c-0.002 5.315-4.31 9.623-9.625 9.625h-251.937l260.125 339.313c1.236 1.591 1.986 3.613 2 5.809v13.125c-0.002 5.301-4.299 9.597-9.6 9.597-0.009 0-0.017 0-0.026 0h0.001z" />
<glyph unicode="&#xe944;" glyph-name="arrow-up-down" data-tags="arrow-up-down" d="M655 177l-119-119.062v780.117l119-119.023c4.342-4.32 10.329-6.991 16.94-6.991 13.266 0 24.020 10.754 24.020 24.020 0 6.596-2.658 12.57-6.962 16.911l-160.029 159.998c-2.153 2.148-4.713 3.89-7.554 5.1l-0.157 0.059-0.070 0.059-0.419 0.043c-2.59 1.090-5.599 1.738-8.756 1.77h-0.012c-1.167-0.156-2.193-0.37-3.191-0.652l0.16 0.038c-1.203-0.154-2.269-0.376-3.305-0.671l0.156 0.038c-4.213-1.017-7.859-3.037-10.802-5.797l0.013 0.012-160-160c-4.205-4.319-6.798-10.224-6.798-16.736 0-13.255 10.745-24 24-24 6.511 0 12.417 2.593 16.741 6.803l119.026 119.027v-780.096l-119.031 119.033c-4.339 4.302-10.314 6.96-16.909 6.96-13.266 0-24.020-10.754-24.020-24.020 0-6.611 2.671-12.598 6.992-16.941l160.121-160.050c2.124-2.107 4.642-3.82 7.434-5.018l0.156-0.060 0.070-0.059c2.717-1.131 5.872-1.796 9.181-1.812h0.007c3.329 0.010 6.495 0.694 9.373 1.923l-0.157-0.060c22.070 13.99 24.597 15.684 27.123 17.379l-19.369-12.242 160.031 160c4.351 4.351 7.042 10.361 7.042 17 0 13.278-10.764 24.042-24.042 24.042-6.639 0-12.649-2.691-17-7.042v0z" />
<glyph unicode="&#xe945;" glyph-name="arrow-up-from-bracket" data-tags="arrow-up-from-bracket" d="M960 280c-13.253-0.004-23.996-10.747-24-24v0-232h-848v232c0 13.255-10.745 24-24 24s-24-10.745-24-24v0-256c0.004-13.253 10.747-23.996 24-24h896c13.253 0.004 23.996 10.747 24 24v0 256c-0.004 13.253-10.747 23.996-24 24v0zM368.969 719.031l119.031 119.032v-646.063c0-13.255 10.745-24 24-24s24 10.745 24 24v0 646.054l119-119.023c4.342-4.32 10.329-6.991 16.94-6.991 13.266 0 24.020 10.754 24.020 24.020 0 6.596-2.658 12.57-6.962 16.911l-160.029 159.998c-0.797 0.797-2.008 0.531-2.88 1.191-1.686 1.32-2.858 3.18-4.902 4.028-1.62 0.406-3.481 0.639-5.395 0.639-0.321 0-0.64-0.007-0.957-0.019l0.046 0.001c-1.302 0.293-2.798 0.46-4.332 0.46-0.113 0-0.226-0.001-0.338-0.003h0.017c-5.905-0.177-11.225-2.541-15.206-6.307l0.011 0.010-160-160c-4.205-4.319-6.798-10.224-6.798-16.736 0-13.255 10.745-24 24-24 6.511 0 12.417 2.593 16.741 6.803l-0.005-0.005z" />
<glyph unicode="&#xe946;" glyph-name="arrow-up-from-line" data-tags="arrow-up-from-line" d="M368.969 719.031l119.031 119.032v-646.063c0-13.255 10.745-24 24-24s24 10.745 24 24v0 646.054l119-119.023c4.342-4.32 10.329-6.991 16.94-6.991 13.266 0 24.020 10.754 24.020 24.020 0 6.596-2.658 12.57-6.962 16.911l-160.029 159.998c-0.797 0.797-2.008 0.531-2.88 1.191-1.686 1.32-2.858 3.18-4.902 4.028-1.62 0.406-3.481 0.639-5.395 0.639-0.321 0-0.64-0.007-0.957-0.019l0.046 0.001c-1.302 0.293-2.798 0.46-4.332 0.46-0.113 0-0.226-0.001-0.338-0.003h0.017c-5.905-0.177-11.225-2.541-15.206-6.307l0.011 0.010-160-160c-4.205-4.319-6.798-10.224-6.798-16.736 0-13.255 10.745-24 24-24 6.511 0 12.417 2.593 16.741 6.803l-0.005-0.005zM960 24h-896c-13.255 0-24-10.745-24-24s10.745-24 24-24v0h896c13.255 0 24 10.745 24 24s-10.745 24-24 24v0z" />
<glyph unicode="&#xe947;" glyph-name="arrow-up-left" data-tags="arrow-up-left" d="M845.812 148.188l-592.652 592.594h394.589c13.255 0 24 10.745 24 24s-10.745 24-24 24v0h-452.531c-3.171-0.034-6.181-0.682-8.93-1.832l0.157 0.058-0.414-0.039-0.070-0.059c-3.863-1.778-7.059-4.43-9.433-7.715l-0.048-0.069c-0.559-0.715-1.109-1.52-1.606-2.359l-0.058-0.106c-2.16-3.37-3.485-7.459-3.597-11.849l-0.001-0.030v-452.531c0-13.255 10.745-24 24-24s24 10.745 24 24v0 394.593l592.594-592.656c4.351-4.351 10.361-7.042 17-7.042 13.278 0 24.042 10.764 24.042 24.042 0 6.639-2.691 12.649-7.042 17v0z" />
<glyph unicode="&#xe948;" glyph-name="arrow-up-narrow-wide" data-tags="arrow-up-narrow-wide" d="M240.969 912.969c-0.797 0.797-2.008 0.531-2.88 1.191-1.686 1.32-2.858 3.18-4.902 4.028-1.615 0.407-3.469 0.64-5.377 0.64-0.329 0-0.656-0.007-0.982-0.021l0.047 0.002c-1.307 0.292-2.807 0.46-4.347 0.46-0.105 0-0.209-0.001-0.313-0.002h0.016c-5.904-0.187-11.222-2.55-15.211-6.308l0.012 0.011-160-160c-4.205-4.319-6.798-10.224-6.798-16.736 0-13.255 10.745-24 24-24 6.511 0 12.417 2.593 16.741 6.803l119.026 119.027v-838.063c0-13.255 10.745-24 24-24s24 10.745 24 24v0 838.063l119.031-119.032c4.319-4.205 10.224-6.798 16.736-6.798 13.255 0 24 10.745 24 24 0 6.511-2.593 12.417-6.803 16.741l0.005-0.005zM960 88h-352c-13.255 0-24-10.745-24-24s10.745-24 24-24v0h352c13.255 0 24 10.745 24 24s-10.745 24-24 24v0zM608 232h288c13.255 0 24 10.745 24 24s-10.745 24-24 24v0h-288c-13.255 0-24-10.745-24-24s10.745-24 24-24v0zM608 808h96c13.255 0 24 10.745 24 24s-10.745 24-24 24v0h-96c-13.255 0-24-10.745-24-24s10.745-24 24-24v0zM608 616h160c13.255 0 24 10.745 24 24s-10.745 24-24 24v0h-160c-13.255 0-24-10.745-24-24s10.745-24 24-24v0zM608 424h224c13.255 0 24 10.745 24 24s-10.745 24-24 24v0h-224c-13.255 0-24-10.745-24-24s10.745-24 24-24v0z" />
<glyph unicode="&#xe949;" glyph-name="arrow-up-right" data-tags="arrow-up-right" d="M851.039 773.555l-0.039 0.414-0.059 0.070c-1.786 3.88-4.455 7.087-7.762 9.463l-0.071 0.048c-0.696 0.546-1.479 1.082-2.297 1.566l-0.101 0.056c-3.375 2.167-7.47 3.497-11.868 3.609l-0.030 0.001h-452.563c-13.255 0-24-10.745-24-24s10.745-24 24-24v0h394.624l-592.624-592.594c-4.356-4.348-7.051-10.359-7.051-17 0-13.266 10.754-24.019 24.019-24.019 6.625 0 12.624 2.682 16.969 7.020v0l592.625 592.625v-394.56c0-13.255 10.745-24 24-24s24 10.745 24 24v0 452.529c-0.034 3.171-0.682 6.181-1.832 8.93l0.058-0.157z" />
<glyph unicode="&#xe94a;" glyph-name="arrow-up-right-from-square" data-tags="arrow-up-right-from-square" d="M832 462.844c-13.253-0.004-23.996-10.747-24-24v0-414.844h-720v720h414.844c13.255 0 24 10.745 24 24s-10.745 24-24 24v0h-438.844c-13.253-0.004-23.996-10.747-24-24v0-768c0.004-13.253 10.747-23.996 24-24h768c13.253 0.004 23.996 10.747 24 24v0 438.844c-0.004 13.253-10.747 23.996-24 24v0zM983.936 897.594v0.031c-0.344 5.119-2.242 9.738-5.221 13.453l-0.027-0.016c-0.789 0.967-1.607 1.834-2.482 2.641l-0.018 0.016-0.060 0.031c-4.2 3.86-9.821 6.232-15.996 6.25h-320.132c-13.255 0-24-10.745-24-24s10.745-24 24-24v0h262.063l-535.032-535c-4.32-4.342-6.991-10.329-6.991-16.94 0-13.266 10.754-24.020 24.020-24.020 6.596 0 12.57 2.658 16.911 6.962l535.029 535.061v-262.063c0-13.255 10.745-24 24-24s24 10.745 24 24v0 319.844z" />
<glyph unicode="&#xe94b;" glyph-name="arrow-up-to-bracket" data-tags="arrow-up-to-bracket" d="M960 920h-896c-13.253-0.004-23.996-10.747-24-24v0-256c0-13.255 10.745-24 24-24s24 10.745 24 24v0 232h848v-232c0-13.255 10.745-24 24-24s24 10.745 24 24v0 256c-0.004 13.253-10.747 23.996-24 24v0zM528.969 720.969c-0.797 0.797-2.008 0.531-2.88 1.191-1.687 1.32-2.859 3.18-4.902 4.028-1.611 0.407-3.46 0.64-5.364 0.64-0.332 0-0.663-0.007-0.992-0.021l0.047 0.002c-1.302 0.292-2.797 0.46-4.332 0.46-0.113 0-0.225-0.001-0.337-0.003h0.017c-5.902-0.19-11.219-2.552-15.207-6.308l0.012 0.011-160-160c-4.205-4.319-6.798-10.224-6.798-16.736 0-13.255 10.745-24 24-24 6.511 0 12.417 2.593 16.741 6.803l119.027 119.027v-646.063c0-13.255 10.745-24 24-24s24 10.745 24 24v0 646.054l119-119.023c4.342-4.32 10.329-6.991 16.94-6.991 13.266 0 24.020 10.754 24.020 24.020 0 6.596-2.658 12.57-6.962 16.911l0.002-0.002z" />
<glyph unicode="&#xe94c;" glyph-name="arrow-up-to-line" data-tags="arrow-up-to-line" d="M528.969 720.969c-0.797 0.797-2.008 0.531-2.88 1.191-1.687 1.32-2.859 3.18-4.902 4.028-1.611 0.407-3.46 0.64-5.364 0.64-0.332 0-0.663-0.007-0.992-0.021l0.047 0.002c-1.302 0.292-2.797 0.46-4.332 0.46-0.113 0-0.225-0.001-0.337-0.003h0.017c-5.902-0.19-11.219-2.552-15.207-6.308l0.012 0.011-160-160c-4.205-4.319-6.798-10.224-6.798-16.736 0-13.255 10.745-24 24-24 6.511 0 12.417 2.593 16.741 6.803l119.027 119.027v-646.063c0-13.255 10.745-24 24-24s24 10.745 24 24v0 646.054l119-119.023c4.342-4.32 10.329-6.991 16.94-6.991 13.266 0 24.020 10.754 24.020 24.020 0 6.596-2.658 12.57-6.962 16.911l0.002-0.002zM960 920h-896c-13.255 0-24-10.745-24-24s10.745-24 24-24v0h896c13.255 0 24 10.745 24 24s-10.745 24-24 24v0z" />
</font>
</defs>
</svg>
